<svg width="201" height="64" xmlns="http://www.w3.org/2000/svg" xmlns:xlink="http://www.w3.org/1999/xlink" overflow="hidden"><defs><clipPath id="clip0"><rect x="540" y="328" width="201" height="64"/></clipPath></defs><g clip-path="url(#clip0)" transform="translate(-540 -328)"><path d="M540.031 328.437C540.408 327.495 540.786 328.259 541.621 329.017 543.388 330.62 544.72 332.778 546.051 334.663 545.523 333.89 547.671 336.646 547.547 336.502 548.496 337.608 549.496 338.682 550.518 339.738 552.888 342.188 555.421 344.497 558.105 346.685 563.481 351.069 569.377 354.965 575.66 358.298 588.47 365.095 602.908 369.482 617.808 370.893 645.299 373.495 673.345 365.995 694.863 350.982L687.013 342.968 740 333.151 721.674 378.355 712.287 368.772C693.949 382.881 670.208 391.206 645.758 391.949 621.144 392.696 596.689 385.256 577.369 371.962 565.17 363.568 555.753 352.977 547.559 341.524 545.717 338.95 543.995 336.246 542.447 333.526 542.203 333.097 539.694 329.278 540.031 328.437Z" fill="#D9D9D9" fill-rule="evenodd"/></g></svg>