<svg width="462" height="80" xmlns="http://www.w3.org/2000/svg" xmlns:xlink="http://www.w3.org/1999/xlink" overflow="hidden"><g transform="translate(-86 -246)"><path d="M87 253.834C87 249.507 90.5072 246 94.8335 246L511.166 246C515.493 246 519 249.507 519 253.834L519 285.166C519 289.493 515.493 293 511.166 293L94.8335 293C90.5072 293 87 289.493 87 285.166Z" fill="#222A35" fill-rule="evenodd"/><path d="M457.483 246 538.06 246C542.998 246 547 249.501 547 253.821L547 285.102C547 289.422 542.998 292.923 538.06 292.923L511.913 292.923 511.537 293 336.71 293 336.701 292.992 340.602 292.371C342.089 291.879 343.52 291.142 344.894 290.159L344.587 289.693C342.805 290.769 341.085 291.308 339.426 291.308 337.132 291.308 334.869 290.19 332.636 287.955L327.991 283.305C330.063 280.322 331.53 275.724 332.392 269.51 332.74 267.149 333.094 265.626 333.452 264.943 333.81 264.259 334.501 263.98 335.525 264.104L335.525 263.514 325.911 263.576 325.911 264.104 326.925 264.042 327.355 264.104C328.665 264.166 329.612 264.368 330.196 264.71 330.78 265.052 331.071 265.865 331.071 267.15 331.071 268.89 330.784 271.355 330.208 274.546 329.633 277.736 328.595 280.357 327.096 282.408L307.06 262.356C303.02 258.342 301 255.083 301 252.58 301 251.235 301.481 250.009 302.444 248.902 303.406 247.795 304.85 247.241 306.775 247.241 308.884 247.241 311.049 247.878 313.271 249.151 315.493 250.424 317.444 252.096 319.123 254.166L319.737 254.166 317.802 248.949C316.205 248.038 314.648 247.314 313.133 246.775L308.562 246.077 457.483 246.077Z" fill="#C00000" fill-rule="evenodd"/><path d="M151.358 257.276C148.662 257.276 146.212 258.297 144.007 260.339 141.803 262.381 140.701 264.921 140.701 267.959 140.701 271.881 142.059 275.323 144.776 278.283 147.494 281.244 150.527 282.724 153.876 282.724 155.756 282.724 157.613 282.218 159.447 281.206 161.281 280.194 162.725 278.799 163.779 277.021 164.833 275.243 165.36 273.423 165.36 271.56 165.36 268.893 164.647 266.466 163.22 264.28 161.793 262.095 159.937 260.381 157.653 259.139 155.369 257.897 153.27 257.276 151.358 257.276ZM232.799 256.962 232.799 269.48 235.355 269.48C237.589 269.48 239.232 268.967 240.284 267.94 241.336 266.913 241.862 265.555 241.862 263.866 241.862 262.213 241.337 260.649 240.286 259.174 239.235 257.699 237.379 256.962 234.719 256.962ZM226.678 255.432 235.114 255.432C237.138 255.432 238.63 255.479 239.589 255.574 240.549 255.668 241.536 255.985 242.552 256.524 243.569 257.063 244.339 257.798 244.863 258.729 245.386 259.661 245.648 260.784 245.648 262.1 245.648 263.613 245.196 265.05 244.292 266.411 243.387 267.772 242.185 268.85 240.685 269.647L242.633 272.408C243.062 273.166 244.205 274.83 246.06 277.399 247.914 279.968 249.324 281.521 250.289 282.057 251.253 282.593 252.182 282.861 253.076 282.861 253.958 282.861 255.129 282.495 256.589 281.763L256.87 282.676C255.163 284.108 253.03 284.823 250.473 284.823 248.738 284.823 247.257 284.316 246.029 283.3 244.802 282.285 242.722 279.597 239.79 275.237 239.707 275.153 239.665 275.081 239.665 275.022L236.994 270.912 234.69 270.989 232.799 270.989 232.799 281.424C232.799 282.23 232.883 282.773 233.052 283.051 233.221 283.33 233.804 283.47 234.8 283.47L234.8 284.549 226.678 284.549 226.678 283.491C227.703 283.448 228.3 283.298 228.467 283.04 228.635 282.782 228.718 282.159 228.718 281.172L228.718 258.674C228.718 258.001 228.642 257.475 228.49 257.096 228.338 256.716 227.734 256.52 226.678 256.506ZM202.684 255.432 221.301 255.432 221.301 260.121 220.291 260.121C219.874 258.548 219.566 257.665 219.366 257.47 219.167 257.275 218.609 257.178 217.693 257.178L208.765 257.178 208.765 269.107 217.025 269.107C217.804 269.107 218.264 269.058 218.407 268.958 218.55 268.859 218.631 268.595 218.649 268.165L219.731 268.165 219.731 271.619 218.689 271.619C218.609 271.157 218.492 270.885 218.338 270.802 218.184 270.719 217.823 270.677 217.256 270.677L208.765 270.677 208.765 279.039C208.765 280.314 208.869 281.201 209.078 281.702 209.286 282.203 209.612 282.515 210.054 282.638 210.496 282.761 211.24 282.822 212.285 282.822L217.272 282.822C218.826 282.822 219.798 282.774 220.187 282.678 220.577 282.583 220.897 282.403 221.146 282.139 221.396 281.875 221.615 281.121 221.803 279.879L222.851 279.879 222.851 284.549 202.684 284.549 202.684 283.497C203.513 283.449 204.054 283.346 204.306 283.189 204.559 283.032 204.685 282.584 204.685 281.845L204.685 258.982C204.685 258.003 204.617 257.353 204.48 257.031 204.344 256.711 203.745 256.55 202.684 256.55ZM171.217 255.432 178.554 255.432 178.554 256.511C177.979 256.472 177.692 256.566 177.692 256.791 177.692 256.946 177.725 257.118 177.792 257.307L186.205 278.792 194.544 257.282C194.643 257.03 194.692 256.84 194.692 256.713 194.692 256.54 194.354 256.472 193.679 256.511L193.679 255.432 198.741 255.432 198.741 256.511C198.219 256.511 197.826 256.544 197.562 256.612 197.298 256.679 197.012 256.969 196.704 257.481 196.396 257.993 196.237 258.267 196.225 258.3L185.534 285 184.619 285 174.692 260.05C173.831 258.208 173.203 257.158 172.807 256.899 172.411 256.64 171.881 256.511 171.217 256.511ZM100.06 255.432 106.076 255.432 115.768 278.58 125.512 255.432 130.624 255.432 130.624 256.491C129.119 256.568 128.366 257.232 128.366 258.482 128.366 258.802 128.402 259.227 128.475 259.76L131.429 281.149C131.606 282.197 131.779 282.834 131.949 283.059 132.119 283.285 132.619 283.435 133.449 283.51L133.449 284.549 126.269 284.549 126.269 283.47C127.109 283.495 127.529 283.22 127.529 282.643 127.529 282.489 127.491 282.133 127.414 281.575L124.735 261.103 115.046 284.549 114.321 284.549 104.595 261.141 101.897 281.818C101.859 282.058 101.84 282.371 101.84 282.758 101.84 283.232 102.273 283.47 103.14 283.47L103.14 284.549 98 284.549 98 283.47C98.8219 283.47 99.2919 283.419 99.41 283.319 99.5281 283.219 99.6316 283.016 99.7204 282.711 99.8091 282.406 99.8792 282.036 99.9305 281.599L103.156 258.844C102.685 257.732 102.221 257.066 101.765 256.844 101.309 256.622 100.74 256.511 100.06 256.511ZM269.623 255C270.582 255 271.635 255.113 272.783 255.338 273.93 255.564 274.579 255.714 274.731 255.789 274.724 255.786 274.81 255.785 274.986 255.785L276.47 260.042 275.43 260.16C275.43 259.997 275.099 259.569 274.438 258.876 273.777 258.183 273.013 257.645 272.146 257.262 271.279 256.879 270.299 256.687 269.205 256.687 267.382 256.687 265.943 257.203 264.888 258.234 263.834 259.265 263.306 260.511 263.306 261.972 263.306 262.939 263.548 263.777 264.03 264.485 264.513 265.192 265.562 265.864 267.178 266.5 270.102 267.479 272.113 268.222 273.212 268.728 274.311 269.235 275.384 270.109 276.43 271.351 277.477 272.593 278 274.181 278 276.114 278 276.899 277.904 277.664 277.713 278.41 277.521 279.155 277.217 279.867 276.801 280.545 276.385 281.223 275.886 281.839 275.305 282.393 274.725 282.947 274.122 283.373 273.499 283.671 272.875 283.969 271.93 284.19 270.664 284.333 269.397 284.477 268.55 284.549 268.122 284.549L260.168 284.549 260.168 275.523 261.256 275.523C261.283 278.404 261.883 280.347 263.055 281.353 264.228 282.358 266.092 282.861 268.648 282.861 270.957 282.861 272.697 282.326 273.868 281.257 275.04 280.187 275.626 278.909 275.626 277.423 275.626 276.527 275.426 275.764 275.025 275.135 274.624 274.506 274.048 273.942 273.296 273.444 272.544 272.946 271.01 272.298 268.692 271.5 266.678 270.795 265.208 270.142 264.282 269.542 263.355 268.941 262.582 268.039 261.962 266.834 261.341 265.629 261.031 264.398 261.031 263.139 261.031 260.84 261.824 258.909 263.41 257.345 264.996 255.782 267.067 255 269.623 255ZM153.987 255C158.071 255 161.416 256.248 164.022 258.745 166.627 261.241 167.93 264.351 167.93 268.075 167.93 272.833 166.432 276.843 163.437 280.106 160.442 283.369 156.465 285 151.508 285 147.475 285 144.172 283.679 141.598 281.036 139.025 278.393 137.739 275.221 137.739 271.52 137.739 269.037 138.355 266.489 139.588 263.876 140.82 261.263 142.679 259.13 145.163 257.478 147.648 255.826 150.589 255 153.987 255Z" fill="#FFFFFF" fill-rule="evenodd"/><path d="M301.947 263.959C295.762 265.404 292.67 268.51 292.67 273.278 292.67 277.55 294.669 281.513 298.667 285.167 302.666 288.82 307.214 290.647 312.313 290.647 315.006 290.647 317.091 290.323 318.568 289.675 320.045 289.027 321.717 287.942 323.584 286.42 323.666 286.337 323.758 286.265 323.861 286.204 323.963 286.142 324.025 286.101 324.045 286.08L306.725 269.226C306.601 269.122 305.877 268.363 304.552 266.948 303.226 265.534 302.358 264.537 301.947 263.959ZM307.811 246C309.825 246 311.593 246.268 313.115 246.805 314.636 247.342 316.198 248.064 317.802 248.972L319.745 254.174 319.128 254.174C317.442 252.11 315.484 250.443 313.253 249.174 311.023 247.904 308.849 247.269 306.731 247.269 304.799 247.269 303.349 247.821 302.383 248.925 301.417 250.029 300.934 251.251 300.934 252.592 300.934 255.088 302.962 258.337 307.018 262.34L327.132 282.332C328.638 280.287 329.679 277.673 330.257 274.492 330.835 271.312 331.123 268.853 331.123 267.118 331.123 265.838 330.83 265.027 330.245 264.686 329.659 264.345 328.708 264.143 327.392 264.082L326.96 264.02 325.943 264.082 325.943 263.555 335.595 263.493 335.595 264.082C334.567 263.958 333.873 264.237 333.513 264.918 333.153 265.6 332.799 267.117 332.449 269.471 331.584 275.667 330.111 280.252 328.031 283.225L332.695 287.862C334.936 290.09 337.208 291.204 339.511 291.204 341.176 291.204 342.903 290.667 344.692 289.594L345 290.059C342.241 292.019 339.255 293 336.042 293 332.665 293.015 329.57 291.619 326.755 288.809 326.755 288.727 326.642 288.582 326.416 288.375L324.906 286.919C320.611 290.973 315.084 293 308.324 293 301.811 293 296.962 291.329 293.777 287.986 290.592 284.643 289 280.96 289 276.936 289 273.449 290.073 270.421 292.22 267.851 294.366 265.282 297.309 263.647 301.047 262.946 299.985 261.412 299.176 260.02 298.621 258.772 298.066 257.523 297.789 256.186 297.789 254.762 297.789 252.512 298.59 250.489 300.194 248.694 301.797 246.898 304.336 246 307.811 246Z" fill="#FFFFFF" fill-rule="evenodd"/><path d="M384.578 261.056 381.15 269.931 388.042 269.931ZM492.969 256.962 492.969 269.48 495.529 269.48C497.766 269.48 499.412 268.967 500.465 267.94 501.519 266.913 502.046 265.555 502.046 263.866 502.046 262.213 501.519 260.649 500.467 259.174 499.415 257.699 497.556 256.962 494.892 256.962ZM486.84 255.432 495.288 255.432C497.315 255.432 498.809 255.479 499.77 255.574 500.73 255.668 501.719 255.985 502.737 256.524 503.754 257.063 504.526 257.798 505.05 258.729 505.575 259.661 505.837 260.784 505.837 262.1 505.837 263.613 505.384 265.05 504.479 266.411 503.573 267.772 502.369 268.85 500.866 269.647L502.817 272.408C503.248 273.166 504.392 274.83 506.249 277.399 508.107 279.968 509.518 281.521 510.484 282.057 511.45 282.593 512.38 282.861 513.275 282.861 514.158 282.861 515.331 282.495 516.794 281.763L517.075 282.676C515.365 284.108 513.23 284.823 510.669 284.823 508.932 284.823 507.448 284.316 506.219 283.3 504.99 282.285 502.907 279.597 499.971 275.237 499.887 275.153 499.845 275.081 499.845 275.022L497.171 270.912 494.864 270.989 492.969 270.989 492.969 281.424C492.969 282.23 493.054 282.773 493.223 283.051 493.392 283.33 493.975 283.47 494.973 283.47L494.973 284.549 486.84 284.549 486.84 283.491C487.867 283.448 488.464 283.298 488.632 283.04 488.799 282.782 488.883 282.159 488.883 281.172L488.883 258.674C488.883 258.001 488.807 257.475 488.655 257.096 488.502 256.716 487.898 256.52 486.84 256.506ZM465.046 255.432 483.69 255.432 483.69 260.121 482.679 260.121C482.261 258.548 481.952 257.665 481.753 257.47 481.553 257.275 480.995 257.178 480.077 257.178L471.137 257.178 471.137 269.107 479.409 269.107C480.188 269.107 480.649 269.058 480.793 268.958 480.936 268.859 481.016 268.595 481.034 268.165L482.118 268.165 482.118 271.619 481.074 271.619C480.995 271.157 480.878 270.885 480.723 270.802 480.569 270.719 480.208 270.677 479.64 270.677L471.137 270.677 471.137 279.039C471.137 280.314 471.241 281.201 471.45 281.702 471.658 282.203 471.984 282.515 472.427 282.638 472.87 282.761 473.615 282.822 474.662 282.822L479.656 282.822C481.212 282.822 482.185 282.774 482.575 282.678 482.965 282.583 483.286 282.403 483.535 282.139 483.785 281.875 484.005 281.121 484.193 279.879L485.242 279.879 485.242 284.549 465.046 284.549 465.046 283.497C465.877 283.449 466.419 283.346 466.671 283.189 466.924 283.032 467.05 282.584 467.05 281.845L467.05 258.982C467.05 258.003 466.982 257.353 466.845 257.031 466.709 256.711 466.109 256.55 465.046 256.55ZM431.664 255.432 440.622 255.432 440.622 256.511C439.56 256.472 438.892 256.569 438.617 256.8 438.343 257.031 438.206 257.72 438.206 258.867L438.206 269.336 454.357 256.817C454.616 256.639 454.745 256.521 454.745 256.465 454.745 256.495 454.366 256.511 453.608 256.511L453.608 255.432 460.543 255.432 460.543 256.501C458.817 256.543 457.309 256.987 456.019 257.831L441.353 268.749 455.855 279.568C455.851 279.561 455.842 279.555 455.829 279.548 455.942 279.605 456.005 279.646 456.018 279.671 455.899 279.612 455.867 279.582 455.921 279.582 457.903 281.065 459.403 282.084 460.421 282.638 461.439 283.192 462.515 283.47 463.647 283.47L463.647 284.549 453.196 284.549 453.196 283.47C454.056 283.47 454.486 283.504 454.486 283.573 454.486 283.537 454.184 283.289 453.58 282.828L438.206 270.755 438.206 280.866C438.206 282.03 438.271 282.718 438.402 282.929 438.533 283.141 438.709 283.294 438.932 283.387 439.155 283.481 439.705 283.508 440.583 283.47L440.583 284.549 431.664 284.549 431.664 283.47C432.879 283.521 433.592 283.402 433.803 283.113 434.014 282.824 434.12 282.113 434.12 280.98L434.12 259.019C434.12 257.858 434.014 257.133 433.803 256.846 433.591 256.559 432.879 256.447 431.664 256.511ZM355 255.432 363.486 255.432C366.426 255.432 368.581 255.769 369.95 256.444 371.319 257.119 372.323 257.967 372.961 258.99 373.6 260.014 373.919 261.342 373.919 262.976 373.919 265.507 373.043 267.41 371.293 268.685 369.542 269.96 367.071 270.569 363.88 270.513L363.88 269.441C365.835 269.441 367.336 268.928 368.382 267.901 369.428 266.875 369.95 265.517 369.95 263.829 369.95 262.5 369.692 261.323 369.177 260.299 368.661 259.274 367.941 258.497 367.017 257.969 366.093 257.442 364.654 257.178 362.699 257.178L361.09 257.178 361.09 281.018C361.09 282.277 361.201 283 361.422 283.188 361.643 283.376 362.272 283.47 363.31 283.47L363.31 284.549 355 284.549 355 283.47C356.336 283.47 357.004 282.992 357.004 282.037L357.004 258.597C357.004 257.694 356.908 257.12 356.716 256.876 356.524 256.633 355.952 256.511 355 256.511ZM527.611 255C528.571 255 529.626 255.113 530.775 255.338 531.924 255.564 532.574 255.714 532.726 255.789 532.72 255.786 532.805 255.785 532.982 255.785L534.468 260.042 533.426 260.16C533.426 259.997 533.095 259.569 532.433 258.876 531.771 258.183 531.006 257.645 530.138 257.262 529.27 256.879 528.288 256.687 527.192 256.687 525.366 256.687 523.926 257.203 522.87 258.234 521.813 259.265 521.285 260.511 521.285 261.972 521.285 262.939 521.527 263.777 522.01 264.485 522.494 265.192 523.544 265.864 525.162 266.5 528.091 267.479 530.105 268.222 531.205 268.728 532.306 269.235 533.38 270.109 534.428 271.351 535.476 272.593 536 274.181 536 276.114 536 276.899 535.904 277.664 535.712 278.41 535.52 279.155 535.216 279.867 534.799 280.545 534.383 281.223 533.883 281.839 533.302 282.393 532.72 282.947 532.117 283.373 531.493 283.671 530.868 283.969 529.922 284.19 528.653 284.333 527.385 284.477 526.536 284.549 526.107 284.549L518.142 284.549 518.142 275.523 519.232 275.523C519.259 278.404 519.86 280.347 521.034 281.353 522.208 282.358 524.075 282.861 526.635 282.861 528.946 282.861 530.689 282.326 531.863 281.257 533.036 280.187 533.623 278.909 533.623 277.423 533.623 276.527 533.422 275.764 533.021 275.135 532.619 274.506 532.042 273.942 531.289 273.444 530.536 272.946 529 272.298 526.679 271.5 524.662 270.795 523.19 270.142 522.262 269.542 521.334 268.941 520.56 268.039 519.939 266.834 519.317 265.629 519.006 264.398 519.006 263.139 519.006 260.84 519.801 258.909 521.389 257.345 522.977 255.782 525.051 255 527.611 255ZM416.667 255C418.289 255 419.692 255.147 420.875 255.441 422.058 255.735 423.083 256.055 423.952 256.402L425.098 256.835C425.2 256.868 425.3 256.934 425.398 257.032L426.51 260.631 425.638 260.631C422.894 257.897 419.72 256.53 416.116 256.53 412.373 256.53 409.352 257.641 407.053 259.862 404.753 262.083 403.603 264.77 403.603 267.921 403.603 269.895 404.121 272.161 405.155 274.719 406.189 277.277 407.815 279.375 410.031 281.013 412.248 282.651 414.934 283.47 418.09 283.47 420.183 283.47 422.224 283.136 424.213 282.47 426.202 281.804 427.73 280.875 428.797 279.683L429.595 279.932 427.453 283.536C424.117 284.255 421.97 284.679 421.011 284.807 420.051 284.936 418.752 285 417.112 285 411.054 285 406.709 283.585 404.076 280.754 401.443 277.924 400.126 274.538 400.126 270.597 400.126 267.934 400.8 265.377 402.147 262.926 403.494 260.475 405.439 258.541 407.982 257.124 410.525 255.708 413.42 255 416.667 255ZM385.171 255 386.228 255 396.483 280.353C396.483 280.475 396.716 281.025 397.183 282.003 397.65 282.981 398.465 283.47 399.628 283.47L399.628 284.549 392.202 284.549 392.202 283.47C392.806 283.47 393.108 283.363 393.108 283.15 393.108 282.893 392.978 282.455 392.72 281.838 392.664 281.783 392.605 281.66 392.542 281.47 392.554 281.531 392.572 281.561 392.596 281.561L388.526 271.501 380.729 271.501 376.499 282.107C376.266 282.712 376.15 283.085 376.15 283.227 376.15 283.389 376.465 283.47 377.095 283.47L377.095 284.549 372.066 284.549 372.066 283.47C372.806 283.47 373.337 283.355 373.658 283.125 373.98 282.895 374.356 282.24 374.789 281.162Z" fill="#FFFFFF" fill-rule="evenodd"/><path d="M463.449 308.741C462.819 308.741 462.262 308.86 461.779 309.098 461.296 309.336 460.919 309.669 460.648 310.096 460.377 310.523 460.242 311.027 460.242 311.606 460.242 312.192 460.371 312.693 460.628 313.11 460.885 313.527 461.251 313.846 461.727 314.066 462.204 314.287 462.774 314.397 463.439 314.397 464.104 314.397 464.674 314.287 465.15 314.066 465.627 313.846 465.993 313.525 466.25 313.105 466.507 312.684 466.636 312.174 466.636 311.575 466.636 310.996 466.507 310.494 466.25 310.07 465.993 309.646 465.627 309.319 465.15 309.088 464.674 308.857 464.107 308.741 463.449 308.741ZM441.197 307.335 442.924 307.335 442.924 318.316 441.197 318.316ZM418.972 307.335 420.699 307.335 420.699 318.316 418.972 318.316ZM463.336 307.17C464.179 307.17 464.916 307.316 465.546 307.609 466.177 307.902 466.675 308.269 467.042 308.711L467.146 308.937 467.355 307.335 469 307.335 468.322 311.657C468.198 312.464 467.941 313.193 467.551 313.844 467.16 314.496 466.627 315.013 465.952 315.395 465.277 315.778 464.443 315.969 463.449 315.969 462.932 315.969 462.452 315.922 462.01 315.827L461.093 315.504 460.885 315.654C460.634 315.864 460.509 316.11 460.509 316.393 460.509 316.648 460.609 316.857 460.807 317.018 461.006 317.18 461.4 317.286 461.99 317.334L465.844 317.644C466.434 317.692 466.953 317.801 467.402 317.97 467.85 318.139 468.202 318.387 468.455 318.714 468.709 319.042 468.836 319.471 468.836 320.001 468.836 320.587 468.637 321.106 468.239 321.558 467.842 322.009 467.239 322.362 466.43 322.617 465.622 322.872 464.604 323 463.377 323 461.644 323 460.335 322.747 459.451 322.24 458.567 321.733 458.125 321.042 458.125 320.167 458.125 319.891 458.157 319.648 458.222 319.438 458.287 319.228 458.361 319.057 458.443 318.926L460.108 319.174C460.054 319.25 460.001 319.366 459.949 319.521 459.898 319.676 459.872 319.857 459.872 320.064 459.872 320.615 460.184 321.003 460.807 321.227 461.431 321.451 462.315 321.563 463.459 321.563 464.316 321.563 465.018 321.504 465.567 321.387 466.115 321.27 466.523 321.101 466.79 320.88 467.057 320.66 467.191 320.401 467.191 320.105 467.191 319.657 467.004 319.379 466.631 319.273 466.257 319.166 465.796 319.092 465.248 319.05L461.095 318.74C460.403 318.685 459.839 318.469 459.404 318.094 458.969 317.718 458.752 317.261 458.752 316.724 458.752 316.393 458.832 316.079 458.993 315.783 459.154 315.486 459.343 315.237 459.559 315.033 459.666 314.932 459.769 314.85 459.866 314.789L459.896 314.775 459.826 314.727C459.545 314.468 459.307 314.173 459.111 313.844 458.721 313.186 458.526 312.443 458.526 311.616 458.526 310.775 458.729 310.018 459.137 309.346 459.545 308.674 460.112 308.143 460.838 307.754 461.565 307.365 462.397 307.17 463.336 307.17ZM451.461 307.17C452.304 307.17 453.041 307.332 453.671 307.656 454.302 307.98 454.79 308.443 455.136 309.047 455.482 309.65 455.655 310.375 455.655 311.223 455.655 311.526 455.655 311.857 455.655 312.216 455.655 312.574 455.655 312.908 455.655 313.219L455.655 318.316 453.908 318.316 453.908 313.053C453.908 312.736 453.908 312.476 453.908 312.273 453.908 312.069 453.908 311.874 453.908 311.688 453.908 311.116 453.812 310.616 453.62 310.189 453.428 309.762 453.126 309.431 452.715 309.196 452.304 308.962 451.766 308.845 451.101 308.845 450.519 308.845 449.979 308.995 449.482 309.295 448.986 309.595 448.588 309.998 448.29 310.504 447.992 311.011 447.843 311.578 447.843 312.205L447.843 318.316 446.095 318.316 446.095 307.335 447.843 307.335 447.843 309.007 448.216 308.528C448.496 308.248 448.813 308.004 449.164 307.795 449.866 307.378 450.632 307.17 451.461 307.17ZM398.595 307.17C399.39 307.17 400.123 307.297 400.795 307.552 401.466 307.807 402.006 308.178 402.414 308.664 402.821 309.15 403.025 309.748 403.025 310.458 403.025 310.486 403.025 310.518 403.025 310.556 403.025 310.594 403.025 310.63 403.025 310.665L401.278 310.665C401.278 310.63 401.278 310.603 401.278 310.582 401.278 310.561 401.278 310.537 401.278 310.51 401.278 310.11 401.151 309.781 400.897 309.522 400.644 309.264 400.315 309.071 399.911 308.943 399.506 308.816 399.074 308.752 398.615 308.752 398.184 308.752 397.759 308.798 397.341 308.891 396.923 308.984 396.577 309.138 396.303 309.352 396.028 309.565 395.891 309.858 395.891 310.23 395.891 310.603 396.02 310.901 396.277 311.125 396.534 311.349 396.897 311.531 397.366 311.673 397.836 311.814 398.389 311.943 399.027 312.061 399.595 312.164 400.133 312.293 400.64 312.448 401.147 312.603 401.595 312.802 401.982 313.043 402.369 313.284 402.674 313.589 402.897 313.958 403.119 314.327 403.231 314.776 403.231 315.307 403.231 315.845 403.109 316.314 402.866 316.713 402.623 317.113 402.287 317.448 401.858 317.716 401.43 317.985 400.937 318.187 400.378 318.321 399.82 318.456 399.225 318.523 398.595 318.523 397.937 318.523 397.329 318.452 396.77 318.311 396.212 318.17 395.725 317.963 395.311 317.691 394.896 317.418 394.574 317.082 394.344 316.682 394.115 316.283 394 315.824 394 315.307 394 315.252 394 315.195 394 315.137 394 315.078 394 315.028 394 314.987L395.758 314.987C395.758 315.028 395.758 315.063 395.758 315.09 395.758 315.118 395.758 315.159 395.758 315.214 395.758 315.773 396.015 316.198 396.529 316.491 397.043 316.784 397.745 316.931 398.636 316.931 399.184 316.931 399.674 316.875 400.106 316.765 400.538 316.655 400.879 316.486 401.129 316.259 401.379 316.031 401.504 315.745 401.504 315.4 401.504 314.828 401.238 314.42 400.707 314.175 400.176 313.93 399.383 313.718 398.328 313.539 397.772 313.443 397.245 313.317 396.745 313.162 396.244 313.007 395.801 312.805 395.413 312.557 395.026 312.309 394.721 312 394.499 311.631 394.276 311.263 394.164 310.82 394.164 310.303 394.164 309.634 394.362 309.067 394.756 308.602 395.15 308.137 395.682 307.782 396.354 307.537 397.026 307.292 397.772 307.17 398.595 307.17ZM433.829 303.696 435.586 303.696 435.586 307.335 438.999 307.335 438.999 308.886 435.586 308.886 435.586 314.211C435.586 314.363 435.586 314.511 435.586 314.656 435.586 314.801 435.586 314.935 435.586 315.059 435.586 315.645 435.657 316.103 435.797 316.434 435.938 316.765 436.255 316.931 436.748 316.931 436.947 316.931 437.135 316.913 437.313 316.879 437.492 316.844 437.625 316.81 437.714 316.775L437.714 318.306C437.598 318.347 437.435 318.387 437.226 318.425 437.017 318.463 436.782 318.482 436.522 318.482 436.186 318.482 435.857 318.444 435.535 318.368 435.213 318.292 434.923 318.156 434.666 317.959 434.409 317.763 434.206 317.484 434.055 317.122 433.904 316.76 433.829 316.293 433.829 315.721 433.829 315.576 433.829 315.426 433.829 315.271 433.829 315.116 433.829 314.952 433.829 314.78L433.829 308.886 431.166 308.886 431.166 307.335 432.873 307.335C433.106 307.335 433.287 307.327 433.418 307.309 433.548 307.292 433.642 307.247 433.7 307.175 433.758 307.103 433.794 306.989 433.808 306.834 433.822 306.679 433.829 306.463 433.829 306.188ZM442.071 302.775C442.393 302.775 442.671 302.867 442.904 303.049 443.137 303.232 443.253 303.479 443.253 303.789 443.253 304.106 443.137 304.356 442.904 304.538 442.671 304.721 442.393 304.812 442.071 304.812 441.749 304.812 441.47 304.721 441.233 304.538 440.997 304.356 440.879 304.106 440.879 303.789 440.879 303.479 440.997 303.232 441.233 303.049 441.47 302.867 441.749 302.775 442.071 302.775ZM419.846 302.775C420.168 302.775 420.445 302.867 420.678 303.049 420.911 303.232 421.028 303.479 421.028 303.789 421.028 304.106 420.911 304.356 420.678 304.538 420.445 304.721 420.168 304.812 419.846 304.812 419.524 304.812 419.245 304.721 419.008 304.538 418.772 304.356 418.653 304.106 418.653 303.789 418.653 303.479 418.772 303.232 419.008 303.049 419.245 302.867 419.524 302.775 419.846 302.775ZM406.09 302.155 407.837 302.155 407.837 308.687 408.063 308.416C408.343 308.159 408.66 307.935 409.014 307.744 409.723 307.361 410.527 307.17 411.425 307.17 412.734 307.17 413.767 307.566 414.524 308.359 415.281 309.152 415.66 310.248 415.66 311.647 415.66 312.012 415.66 312.433 415.66 312.908 415.66 313.384 415.66 313.884 415.66 314.408L415.66 318.316 413.912 318.316 413.912 314.232C413.912 314.039 413.912 313.81 413.912 313.544 413.912 313.279 413.912 313.01 413.912 312.738 413.912 312.466 413.912 312.233 413.912 312.04 413.912 310.985 413.688 310.189 413.239 309.651 412.79 309.114 412.079 308.845 411.106 308.845 410.455 308.845 409.885 308.972 409.395 309.227 408.905 309.483 408.522 309.831 408.248 310.272 407.974 310.713 407.837 311.213 407.837 311.771L407.837 318.316 406.09 318.316ZM429.01 302C429.345 302 429.613 302.021 429.811 302.062 430.01 302.103 430.144 302.141 430.212 302.176L430.212 303.727C430.13 303.699 429.993 303.668 429.801 303.634 429.609 303.599 429.404 303.582 429.184 303.582 428.718 303.582 428.34 303.654 428.049 303.799 427.757 303.944 427.533 304.142 427.375 304.394 427.218 304.645 427.11 304.93 427.051 305.247 426.993 305.564 426.964 305.895 426.964 306.239L426.964 307.335 430.151 307.335 430.151 308.886 426.964 308.886 426.964 318.316 425.217 318.316 425.217 308.886 422.832 308.886 422.832 307.335 425.217 307.335 425.217 305.919C425.217 305.429 425.273 304.98 425.386 304.569 425.499 304.159 425.664 303.796 425.88 303.479 426.096 303.161 426.358 302.893 426.666 302.672 426.974 302.451 427.326 302.284 427.72 302.171 428.114 302.057 428.544 302 429.01 302Z" fill-rule="evenodd"/><path d="M187.61 307.951C186.859 307.951 186.194 308.113 185.612 308.437 185.03 308.76 184.576 309.221 184.249 309.817 183.922 310.413 183.759 311.117 183.759 311.928 183.759 312.74 183.922 313.449 184.249 314.055 184.576 314.662 185.03 315.132 185.612 315.466 186.194 315.8 186.859 315.967 187.61 315.967 188.367 315.967 189.034 315.8 189.613 315.466 190.191 315.132 190.643 314.662 190.97 314.055 191.297 313.449 191.461 312.74 191.461 311.928 191.461 311.117 191.297 310.413 190.97 309.817 190.643 309.221 190.191 308.76 189.613 308.437 189.034 308.113 188.367 307.951 187.61 307.951ZM229.425 307.9C228.792 307.9 228.232 308.017 227.747 308.253 227.262 308.488 226.883 308.817 226.611 309.239 226.34 309.662 226.204 310.159 226.204 310.732 226.204 311.312 226.333 311.807 226.591 312.22 226.849 312.632 227.217 312.948 227.695 313.166 228.174 313.384 228.747 313.493 229.414 313.493 230.082 313.493 230.655 313.384 231.133 313.166 231.612 312.948 231.98 312.631 232.238 312.215 232.496 311.799 232.625 311.294 232.625 310.701 232.625 310.129 232.496 309.633 232.238 309.214 231.98 308.794 231.612 308.471 231.133 308.242 230.655 308.014 230.086 307.9 229.425 307.9ZM207.075 306.509 208.81 306.509 208.81 317.368 207.075 317.368ZM194.84 306.509 196.657 306.509 199.747 316.014 202.759 306.509 204.576 306.509 200.9 317.368 198.598 317.368ZM187.61 306.356C188.711 306.356 189.683 306.594 190.526 307.072 191.37 307.549 192.03 308.207 192.509 309.045 192.987 309.883 193.226 310.845 193.226 311.928 193.226 313.012 192.987 313.979 192.509 314.827 192.03 315.676 191.37 316.344 190.526 316.831 189.683 317.319 188.711 317.562 187.61 317.562 186.508 317.562 185.536 317.319 184.693 316.831 183.85 316.344 183.189 315.676 182.711 314.827 182.232 313.979 181.993 313.012 181.993 311.928 181.993 310.845 182.232 309.883 182.711 309.045 183.189 308.207 183.85 307.549 184.693 307.072 185.536 306.594 186.508 306.356 187.61 306.356ZM229.311 306.346C230.158 306.346 230.898 306.49 231.531 306.78 232.164 307.07 232.665 307.433 233.033 307.869L233.138 308.093 233.348 306.509 235 306.509 234.319 310.783C234.195 311.581 233.937 312.302 233.544 312.946 233.152 313.59 232.617 314.101 231.939 314.48 231.261 314.858 230.423 315.047 229.425 315.047 228.905 315.047 228.423 315 227.979 314.906L227.059 314.588 226.849 314.735C226.598 314.943 226.472 315.187 226.472 315.466 226.472 315.718 226.572 315.925 226.771 316.085 226.971 316.245 227.367 316.349 227.959 316.397L231.83 316.703C232.422 316.751 232.944 316.859 233.395 317.026 233.845 317.193 234.198 317.438 234.453 317.762 234.707 318.086 234.835 318.51 234.835 319.035 234.835 319.614 234.635 320.127 234.236 320.574 233.837 321.02 233.231 321.369 232.419 321.622 231.607 321.874 230.585 322 229.352 322 227.611 322 226.296 321.75 225.409 321.249 224.521 320.747 224.077 320.064 224.077 319.198 224.077 318.926 224.109 318.685 224.175 318.478 224.24 318.27 224.314 318.101 224.397 317.971L226.069 318.217C226.014 318.292 225.961 318.406 225.909 318.559 225.858 318.713 225.832 318.892 225.832 319.096 225.832 319.641 226.145 320.025 226.771 320.246 227.398 320.468 228.286 320.579 229.435 320.579 230.295 320.579 231.001 320.521 231.552 320.405 232.102 320.289 232.512 320.122 232.78 319.904 233.049 319.686 233.183 319.43 233.183 319.137 233.183 318.694 232.995 318.42 232.62 318.314 232.245 318.208 231.782 318.135 231.232 318.094L227.06 317.787C226.365 317.733 225.799 317.52 225.362 317.148 224.925 316.777 224.707 316.325 224.707 315.793 224.707 315.466 224.787 315.156 224.949 314.863 225.111 314.57 225.3 314.323 225.517 314.122 225.625 314.021 225.728 313.941 225.825 313.88L225.856 313.867 225.785 313.819C225.503 313.562 225.264 313.271 225.068 312.946 224.676 312.295 224.479 311.56 224.479 310.742 224.479 309.911 224.684 309.163 225.094 308.498 225.503 307.833 226.073 307.308 226.802 306.923 227.532 306.538 228.368 306.346 229.311 306.346ZM217.384 306.346C218.231 306.346 218.971 306.506 219.604 306.826 220.237 307.147 220.727 307.605 221.075 308.201 221.423 308.798 221.596 309.515 221.596 310.354 221.596 310.654 221.596 310.981 221.596 311.335 221.596 311.69 221.596 312.02 221.596 312.327L221.596 317.368 219.841 317.368 219.841 312.164C219.841 311.85 219.841 311.593 219.841 311.392 219.841 311.19 219.841 310.998 219.841 310.814 219.841 310.248 219.745 309.754 219.552 309.331 219.359 308.909 219.057 308.581 218.644 308.35 218.231 308.118 217.69 308.002 217.023 308.002 216.438 308.002 215.896 308.15 215.397 308.447 214.898 308.743 214.498 309.142 214.199 309.643 213.899 310.144 213.75 310.705 213.75 311.325L213.75 317.368 211.995 317.368 211.995 306.509 213.75 306.509 213.75 308.162 214.124 307.689C214.406 307.412 214.724 307.17 215.077 306.964 215.782 306.552 216.551 306.346 217.384 306.346ZM168.925 306.346C169.758 306.346 170.436 306.513 170.959 306.847 171.482 307.181 171.867 307.641 172.115 308.227L172.158 308.375 172.603 307.7C172.84 307.426 173.113 307.184 173.421 306.974 174.037 306.555 174.768 306.346 175.615 306.346 176.407 306.346 177.069 306.499 177.602 306.806 178.136 307.112 178.539 307.544 178.81 308.099 179.082 308.655 179.218 309.314 179.218 310.078 179.218 310.364 179.218 310.718 179.218 311.141 179.218 311.564 179.218 312.041 179.218 312.573L179.218 317.368 177.463 317.368 177.463 312.573C177.463 312.109 177.463 311.726 177.463 311.422 177.463 311.119 177.463 310.862 177.463 310.65 177.463 310.384 177.446 310.098 177.411 309.791 177.377 309.485 177.291 309.197 177.153 308.927 177.016 308.658 176.797 308.437 176.498 308.263 176.198 308.089 175.78 308.002 175.243 308.002 174.713 308.002 174.271 308.101 173.917 308.299 173.562 308.496 173.28 308.755 173.07 309.076 172.86 309.396 172.71 309.742 172.621 310.113 172.531 310.485 172.487 310.841 172.487 311.182L172.487 311.3C172.487 311.726 172.487 312.211 172.487 312.757L172.487 317.368 170.742 317.368 170.742 312.573C170.742 312.15 170.742 311.784 170.742 311.473 170.742 311.163 170.742 310.903 170.742 310.691 170.742 310.425 170.723 310.137 170.685 309.827 170.647 309.517 170.559 309.224 170.422 308.948 170.284 308.672 170.069 308.445 169.777 308.268 169.484 308.091 169.08 308.002 168.563 308.002 168.04 308.002 167.6 308.103 167.242 308.304 166.884 308.505 166.595 308.769 166.375 309.096 166.154 309.423 165.996 309.783 165.9 310.175 165.803 310.567 165.755 310.954 165.755 311.335L165.755 317.368 164 317.368 164 306.509 165.755 306.509 165.755 307.946 165.901 307.725C166.143 307.444 166.419 307.198 166.731 306.985 167.354 306.559 168.085 306.346 168.925 306.346ZM207.953 302C208.276 302 208.555 302.09 208.789 302.271 209.023 302.452 209.14 302.695 209.14 303.002 209.14 303.316 209.023 303.563 208.789 303.743 208.555 303.924 208.276 304.014 207.953 304.014 207.629 304.014 207.349 303.924 207.111 303.743 206.874 303.563 206.755 303.316 206.755 303.002 206.755 302.695 206.874 302.452 207.111 302.271 207.349 302.09 207.629 302 207.953 302Z" fill-rule="evenodd"/><path d="M296.697 312.559 295.444 312.88C294.788 312.988 294.103 313.076 293.388 313.146 292.351 313.243 291.569 313.427 291.044 313.698 290.518 313.969 290.256 314.424 290.256 315.062 290.256 315.667 290.472 316.123 290.905 316.432 291.338 316.741 292.008 316.896 292.914 316.896 293.622 316.896 294.261 316.786 294.831 316.568 295.402 316.349 295.855 316.024 296.192 315.594 296.528 315.163 296.697 314.628 296.697 313.99ZM281.101 308.677C280.517 308.677 279.971 308.821 279.463 309.109 278.954 309.398 278.544 309.785 278.231 310.271 277.919 310.757 277.762 311.302 277.762 311.906L277.752 311.906 277.752 313.469 277.762 313.469C277.762 313.483 277.762 313.498 277.762 313.516 277.762 313.533 277.762 313.549 277.762 313.563 277.762 314.16 277.919 314.705 278.231 315.198 278.544 315.691 278.954 316.083 279.463 316.375 279.971 316.667 280.517 316.812 281.101 316.812 282.07 316.812 282.876 316.477 283.518 315.807 284.161 315.137 284.482 314.115 284.482 312.74 284.482 311.358 284.162 310.335 283.523 309.672 282.884 309.009 282.077 308.677 281.101 308.677ZM347.435 308.635C346.803 308.635 346.245 308.755 345.76 308.995 345.276 309.234 344.898 309.569 344.626 310 344.355 310.431 344.219 310.938 344.219 311.521 344.219 312.111 344.348 312.616 344.606 313.036 344.864 313.457 345.231 313.778 345.709 314 346.186 314.222 346.758 314.333 347.425 314.333 348.091 314.333 348.663 314.222 349.14 314 349.618 313.778 349.986 313.455 350.243 313.031 350.501 312.608 350.63 312.094 350.63 311.49 350.63 310.906 350.501 310.401 350.243 309.974 349.986 309.547 349.618 309.217 349.14 308.984 348.663 308.752 348.094 308.635 347.435 308.635ZM325.125 307.219 326.857 307.219 326.857 318.281 325.125 318.281ZM347.321 307.052C348.167 307.052 348.905 307.2 349.537 307.495 350.169 307.79 350.669 308.16 351.037 308.604L351.141 308.833 351.351 307.219 353 307.219 352.32 311.573C352.196 312.385 351.938 313.12 351.547 313.776 351.155 314.432 350.621 314.953 349.944 315.339 349.268 315.724 348.431 315.917 347.435 315.917 346.916 315.917 346.435 315.869 345.992 315.773L345.073 315.449 344.864 315.599C344.613 315.811 344.487 316.059 344.487 316.344 344.487 316.601 344.587 316.811 344.786 316.974 344.986 317.137 345.381 317.243 345.971 317.292L349.836 317.604C350.427 317.653 350.947 317.762 351.397 317.932 351.847 318.102 352.2 318.352 352.454 318.682 352.708 319.012 352.835 319.444 352.835 319.979 352.835 320.569 352.636 321.092 352.237 321.547 351.839 322.002 351.234 322.358 350.424 322.615 349.613 322.872 348.593 323 347.363 323 345.624 323 344.312 322.745 343.426 322.234 342.54 321.724 342.096 321.028 342.096 320.146 342.096 319.868 342.129 319.623 342.194 319.411 342.26 319.2 342.333 319.028 342.416 318.896L344.085 319.146C344.03 319.222 343.977 319.339 343.926 319.495 343.874 319.651 343.848 319.833 343.848 320.042 343.848 320.597 344.161 320.988 344.786 321.214 345.411 321.439 346.298 321.552 347.445 321.552 348.304 321.552 349.008 321.493 349.558 321.375 350.107 321.257 350.516 321.087 350.784 320.865 351.052 320.642 351.186 320.382 351.186 320.083 351.186 319.632 350.999 319.352 350.625 319.245 350.25 319.137 349.788 319.062 349.238 319.021L345.075 318.708C344.381 318.653 343.816 318.436 343.38 318.057 342.943 317.679 342.725 317.219 342.725 316.677 342.725 316.344 342.806 316.028 342.967 315.729 343.129 315.431 343.318 315.179 343.534 314.974 343.642 314.872 343.745 314.789 343.842 314.728L343.872 314.714 343.802 314.665C343.52 314.404 343.282 314.108 343.086 313.776 342.694 313.113 342.498 312.365 342.498 311.531 342.498 310.684 342.703 309.922 343.112 309.245 343.52 308.568 344.089 308.033 344.817 307.641 345.545 307.248 346.38 307.052 347.321 307.052ZM335.416 307.052C336.261 307.052 336.999 307.215 337.631 307.542 338.264 307.868 338.753 308.335 339.1 308.943 339.447 309.55 339.62 310.281 339.62 311.135 339.62 311.441 339.62 311.774 339.62 312.135 339.62 312.497 339.62 312.833 339.62 313.146L339.62 318.281 337.868 318.281 337.868 312.979C337.868 312.66 337.868 312.398 337.868 312.193 337.868 311.988 337.868 311.792 337.868 311.604 337.868 311.028 337.772 310.524 337.58 310.094 337.388 309.663 337.085 309.33 336.673 309.094 336.261 308.858 335.721 308.74 335.055 308.74 334.471 308.74 333.93 308.891 333.432 309.193 332.934 309.495 332.535 309.901 332.236 310.411 331.938 310.922 331.788 311.493 331.788 312.125L331.788 318.281 330.036 318.281 330.036 307.219 331.788 307.219 331.788 308.903 332.162 308.421C332.443 308.138 332.76 307.892 333.112 307.682 333.817 307.262 334.584 307.052 335.416 307.052ZM306.819 307.052C307.616 307.052 308.328 307.175 308.953 307.422 309.578 307.668 310.107 307.997 310.54 308.406 310.973 308.816 311.304 309.266 311.534 309.755 311.765 310.245 311.88 310.733 311.88 311.219 311.88 311.226 311.88 311.236 311.88 311.25 311.88 311.264 311.88 311.278 311.88 311.292L310.138 311.292C310.138 311.257 310.135 311.217 310.128 311.172 310.121 311.127 310.114 311.08 310.107 311.031 310.052 310.566 309.877 310.158 309.581 309.807 309.286 309.457 308.901 309.181 308.427 308.979 307.953 308.778 307.414 308.677 306.809 308.677 306.129 308.677 305.499 308.825 304.918 309.12 304.337 309.415 303.87 309.863 303.516 310.464 303.163 311.064 302.986 311.823 302.986 312.74 302.986 313.649 303.161 314.41 303.511 315.021 303.862 315.632 304.327 316.092 304.908 316.401 305.488 316.71 306.122 316.865 306.809 316.865 307.551 316.865 308.163 316.747 308.644 316.51 309.125 316.274 309.487 315.96 309.731 315.568 309.975 315.175 310.11 314.754 310.138 314.302L311.88 314.302C311.88 314.802 311.77 315.3 311.55 315.797 311.33 316.293 311.007 316.745 310.581 317.151 310.155 317.557 309.628 317.882 308.999 318.125 308.371 318.368 307.644 318.49 306.819 318.49 305.775 318.49 304.827 318.259 303.975 317.797 303.123 317.335 302.448 316.674 301.95 315.813 301.452 314.951 301.203 313.927 301.203 312.74 301.203 311.552 301.452 310.533 301.95 309.682 302.448 308.832 303.123 308.181 303.975 307.729 304.827 307.278 305.775 307.052 306.819 307.052ZM293.698 307.052C294.591 307.052 295.396 307.189 296.114 307.464 296.832 307.738 297.403 308.144 297.825 308.682 298.248 309.221 298.459 309.885 298.459 310.677 298.459 310.823 298.459 310.967 298.459 311.109 298.459 311.252 298.459 311.396 298.459 311.542L298.459 316.198C298.459 316.441 298.469 316.677 298.49 316.906 298.51 317.135 298.545 317.337 298.593 317.51 298.655 317.719 298.723 317.887 298.799 318.016 298.875 318.144 298.936 318.233 298.984 318.281L297.222 318.281C297.188 318.247 297.136 318.165 297.068 318.036 296.999 317.908 296.934 317.757 296.872 317.583 296.824 317.444 296.786 317.269 296.758 317.057L296.747 316.869 296.073 317.583C295.664 317.868 295.171 318.09 294.594 318.25 294.017 318.41 293.364 318.49 292.636 318.49 291.805 318.49 291.078 318.358 290.456 318.094 289.835 317.83 289.352 317.45 289.008 316.953 288.665 316.457 288.493 315.861 288.493 315.167 288.493 314.444 288.679 313.842 289.05 313.359 289.421 312.877 289.943 312.5 290.616 312.229 291.289 311.958 292.073 311.778 292.966 311.688 294.313 311.549 295.271 311.411 295.841 311.276 296.411 311.141 296.697 310.92 296.697 310.615 296.697 310.608 296.697 310.602 296.697 310.599 296.697 310.596 296.697 310.59 296.697 310.583 296.697 309.944 296.439 309.467 295.924 309.151 295.408 308.835 294.663 308.677 293.687 308.677 292.671 308.677 291.88 308.856 291.317 309.214 290.754 309.571 290.472 310.149 290.472 310.948L288.741 310.948C288.741 310.122 288.95 309.418 289.369 308.839 289.788 308.259 290.371 307.816 291.116 307.51 291.861 307.205 292.722 307.052 293.698 307.052ZM281.349 307.052C282.235 307.052 283.053 307.273 283.802 307.714 284.55 308.155 285.152 308.799 285.605 309.646 286.058 310.493 286.285 311.524 286.285 312.74 286.285 313.976 286.062 315.023 285.615 315.88 285.169 316.738 284.571 317.387 283.822 317.828 283.073 318.269 282.249 318.49 281.349 318.49 280.504 318.49 279.714 318.28 278.978 317.859 278.611 317.649 278.278 317.4 277.98 317.111L277.752 316.826 277.752 322.833 276 322.833 276 307.219 277.752 307.219 277.752 308.668 277.98 308.389C278.278 308.107 278.611 307.865 278.978 307.661 279.714 307.255 280.504 307.052 281.349 307.052ZM326.001 302.625C326.324 302.625 326.603 302.717 326.836 302.901 327.07 303.085 327.187 303.333 327.187 303.646 327.187 303.965 327.07 304.217 326.836 304.401 326.603 304.585 326.324 304.677 326.001 304.677 325.679 304.677 325.399 304.585 325.162 304.401 324.924 304.217 324.806 303.965 324.806 303.646 324.806 303.333 324.924 303.085 325.162 302.901 325.399 302.717 325.679 302.625 326.001 302.625ZM314.438 302 316.108 302 316.108 311.313 320.838 307.219 323.105 307.219 318.529 311.29 323.146 318.281 321.26 318.281 317.406 312.294 316.108 313.431 316.108 318.281 314.438 318.281Z" fill-rule="evenodd"/><path d="M252 302C252 300.343 253.343 299 255 299L255 299C256.657 299 258 300.343 258 302L258 322C258 323.657 256.657 325 255 325L255 325C253.343 325 252 323.657 252 322Z" fill="#C00000" fill-rule="evenodd"/><path d="M371 301.5C371 300.119 372.119 299 373.5 299L373.5 299C374.881 299 376 300.119 376 301.5L376 322.5C376 323.881 374.881 325 373.5 325L373.5 325C372.119 325 371 323.881 371 322.5Z" fill="#C00000" fill-rule="evenodd"/></g></svg>