<svg width="461" height="80" xmlns="http://www.w3.org/2000/svg" xmlns:xlink="http://www.w3.org/1999/xlink" overflow="hidden"><g transform="translate(-459 -123)"><path d="M459 130.833C459 126.507 462.507 123 466.833 123L884.167 123C888.493 123 892 126.507 892 130.833L892 162.167C892 166.493 888.493 170 884.167 170L466.833 170C462.507 170 459 166.493 459 162.167Z" fill="#FFFFFF" fill-rule="evenodd"/><path d="M830.119 123 911.024 123C915.981 123 920 126.501 920 130.821L920 162.102C920 166.422 915.981 169.923 911.024 169.923L884.771 169.923 884.393 170 708.855 170 708.846 169.992 712.763 169.371C714.256 168.879 715.692 168.142 717.072 167.159L716.764 166.693C714.975 167.769 713.247 168.308 711.582 168.308 709.279 168.308 707.007 167.19 704.765 164.955L700.1 160.305C702.181 157.322 703.654 152.724 704.52 146.51 704.869 144.149 705.224 142.626 705.584 141.943 705.944 141.259 706.638 140.98 707.666 141.104L707.666 140.514 698.012 140.576 698.012 141.104 699.03 141.042 699.462 141.104C700.778 141.166 701.729 141.368 702.315 141.71 702.901 142.052 703.194 142.865 703.194 144.15 703.194 145.89 702.905 148.355 702.327 151.546 701.75 154.736 700.708 157.357 699.202 159.408L679.084 139.356C675.028 135.342 673 132.083 673 129.58 673 128.235 673.483 127.009 674.45 125.902 675.416 124.795 676.865 124.241 678.798 124.241 680.916 124.241 683.09 124.878 685.321 126.151 687.552 127.424 689.51 129.096 691.196 131.166L691.813 131.166 689.87 125.949C688.266 125.038 686.704 124.314 685.182 123.775L680.593 123.077 830.119 123.077Z" fill="#C00000" fill-rule="evenodd"/><path d="M523.358 134.276C520.662 134.276 518.212 135.297 516.007 137.339 513.803 139.381 512.701 141.921 512.701 144.959 512.701 148.881 514.059 152.323 516.776 155.283 519.494 158.244 522.527 159.724 525.876 159.724 527.756 159.724 529.613 159.218 531.447 158.206 533.281 157.194 534.725 155.799 535.779 154.021 536.833 152.243 537.36 150.423 537.36 148.56 537.36 145.893 536.647 143.466 535.22 141.28 533.793 139.095 531.937 137.381 529.653 136.139 527.369 134.897 525.27 134.276 523.358 134.276ZM604.799 133.962 604.799 146.48 607.355 146.48C609.589 146.48 611.232 145.967 612.284 144.94 613.336 143.912 613.862 142.555 613.862 140.866 613.862 139.213 613.337 137.649 612.286 136.174 611.235 134.699 609.379 133.962 606.719 133.962ZM598.678 132.432 607.114 132.432C609.138 132.432 610.63 132.479 611.589 132.574 612.549 132.668 613.536 132.985 614.552 133.524 615.568 134.063 616.339 134.798 616.862 135.729 617.386 136.661 617.648 137.784 617.648 139.1 617.648 140.613 617.196 142.05 616.292 143.411 615.387 144.772 614.185 145.85 612.685 146.647L614.633 149.408C615.062 150.166 616.205 151.83 618.06 154.399 619.914 156.968 621.324 158.521 622.289 159.057 623.253 159.593 624.182 159.861 625.076 159.861 625.958 159.861 627.129 159.495 628.589 158.763L628.87 159.676C627.163 161.108 625.03 161.823 622.473 161.823 620.738 161.823 619.257 161.316 618.029 160.3 616.802 159.285 614.722 156.597 611.79 152.237 611.707 152.153 611.665 152.081 611.665 152.022L608.994 147.912 606.69 147.989 604.799 147.989 604.799 158.424C604.799 159.23 604.883 159.773 605.052 160.051 605.221 160.33 605.804 160.47 606.8 160.47L606.8 161.549 598.678 161.549 598.678 160.491C599.703 160.448 600.3 160.298 600.467 160.04 600.635 159.782 600.718 159.159 600.718 158.172L600.718 135.674C600.718 135.001 600.642 134.475 600.49 134.096 600.338 133.716 599.734 133.52 598.678 133.506ZM574.684 132.432 593.301 132.432 593.301 137.121 592.291 137.121C591.874 135.548 591.566 134.665 591.366 134.47 591.167 134.275 590.609 134.178 589.693 134.178L580.765 134.178 580.765 146.107 589.025 146.107C589.804 146.107 590.264 146.058 590.407 145.958 590.55 145.859 590.631 145.595 590.649 145.165L591.731 145.165 591.731 148.619 590.689 148.619C590.609 148.157 590.492 147.885 590.338 147.802 590.184 147.719 589.823 147.677 589.256 147.677L580.765 147.677 580.765 156.039C580.765 157.314 580.869 158.201 581.078 158.702 581.286 159.203 581.612 159.515 582.054 159.638 582.496 159.761 583.24 159.822 584.285 159.822L589.273 159.822C590.826 159.822 591.798 159.774 592.187 159.678 592.577 159.583 592.897 159.403 593.146 159.139 593.396 158.875 593.615 158.121 593.803 156.879L594.851 156.879 594.851 161.549 574.684 161.549 574.684 160.497C575.513 160.449 576.054 160.346 576.306 160.189 576.559 160.032 576.685 159.584 576.685 158.845L576.685 135.982C576.685 135.003 576.617 134.353 576.48 134.031 576.344 133.711 575.745 133.55 574.684 133.55ZM543.217 132.432 550.554 132.432 550.554 133.511C549.979 133.472 549.692 133.566 549.692 133.791 549.692 133.946 549.725 134.118 549.792 134.307L558.205 155.792 566.544 134.282C566.643 134.03 566.692 133.84 566.692 133.713 566.692 133.54 566.354 133.472 565.679 133.511L565.679 132.432 570.741 132.432 570.741 133.511C570.219 133.511 569.826 133.544 569.562 133.612 569.298 133.679 569.012 133.969 568.704 134.481 568.396 134.993 568.237 135.267 568.225 135.3L557.534 162 556.619 162 546.692 137.05C545.831 135.208 545.203 134.158 544.807 133.899 544.411 133.64 543.881 133.511 543.217 133.511ZM472.06 132.432 478.076 132.432 487.768 155.58 497.512 132.432 502.624 132.432 502.624 133.491C501.119 133.568 500.366 134.232 500.366 135.482 500.366 135.802 500.402 136.227 500.475 136.76L503.429 158.149C503.606 159.197 503.779 159.834 503.949 160.059 504.119 160.285 504.619 160.435 505.449 160.51L505.449 161.549 498.269 161.549 498.269 160.47C499.109 160.495 499.529 160.22 499.529 159.643 499.529 159.489 499.491 159.133 499.414 158.575L496.735 138.103 487.046 161.549 486.321 161.549 476.595 138.141 473.897 158.818C473.859 159.058 473.84 159.371 473.84 159.758 473.84 160.232 474.273 160.47 475.14 160.47L475.14 161.549 470 161.549 470 160.47C470.822 160.47 471.292 160.419 471.41 160.319 471.528 160.219 471.632 160.016 471.72 159.711 471.809 159.406 471.879 159.036 471.93 158.599L475.156 135.844C474.685 134.732 474.221 134.066 473.765 133.844 473.309 133.622 472.74 133.511 472.06 133.511ZM641.623 132C642.582 132 643.635 132.113 644.783 132.338 645.93 132.564 646.579 132.714 646.731 132.789 646.724 132.786 646.81 132.785 646.986 132.785L648.47 137.042 647.43 137.16C647.43 136.997 647.099 136.569 646.438 135.876 645.777 135.183 645.013 134.645 644.146 134.262 643.279 133.879 642.299 133.687 641.205 133.687 639.382 133.687 637.943 134.203 636.888 135.234 635.834 136.265 635.306 137.511 635.306 138.972 635.306 139.939 635.548 140.777 636.03 141.485 636.513 142.192 637.562 142.864 639.178 143.5 642.102 144.479 644.113 145.222 645.212 145.728 646.311 146.235 647.384 147.109 648.43 148.351 649.477 149.593 650 151.181 650 153.114 650 153.899 649.904 154.664 649.713 155.41 649.521 156.155 649.217 156.867 648.801 157.545 648.385 158.223 647.886 158.839 647.305 159.393 646.725 159.947 646.122 160.373 645.499 160.671 644.875 160.969 643.93 161.19 642.664 161.333 641.397 161.477 640.55 161.549 640.122 161.549L632.168 161.549 632.168 152.523 633.256 152.523C633.283 155.404 633.883 157.347 635.055 158.353 636.228 159.358 638.092 159.861 640.648 159.861 642.957 159.861 644.697 159.326 645.868 158.257 647.04 157.187 647.626 155.909 647.626 154.423 647.626 153.527 647.426 152.764 647.025 152.135 646.624 151.506 646.048 150.942 645.296 150.444 644.544 149.946 643.01 149.298 640.692 148.5 638.678 147.795 637.208 147.142 636.282 146.542 635.355 145.941 634.582 145.039 633.962 143.834 633.341 142.629 633.031 141.398 633.031 140.139 633.031 137.84 633.824 135.909 635.41 134.345 636.996 132.782 639.067 132 641.623 132ZM525.987 132C530.071 132 533.416 133.248 536.022 135.745 538.627 138.241 539.93 141.351 539.93 145.075 539.93 149.833 538.432 153.843 535.437 157.106 532.442 160.369 528.465 162 523.508 162 519.475 162 516.172 160.679 513.598 158.036 511.025 155.393 509.739 152.221 509.739 148.52 509.739 146.037 510.355 143.489 511.588 140.876 512.82 138.263 514.679 136.13 517.163 134.478 519.648 132.826 522.589 132 525.987 132Z" fill="#222A35" fill-rule="evenodd"/><path d="M673.947 140.959C667.762 142.404 664.67 145.51 664.67 150.278 664.67 154.55 666.669 158.513 670.667 162.167 674.666 165.82 679.214 167.647 684.313 167.647 687.006 167.647 689.091 167.323 690.568 166.675 692.045 166.027 693.717 164.942 695.584 163.42 695.666 163.337 695.758 163.265 695.861 163.204 695.963 163.142 696.025 163.101 696.045 163.08L678.724 146.226C678.601 146.122 677.877 145.363 676.552 143.949 675.226 142.534 674.358 141.537 673.947 140.959ZM679.811 123C681.825 123 683.593 123.268 685.115 123.805 686.636 124.342 688.198 125.064 689.802 125.972L691.745 131.174 691.128 131.174C689.442 129.11 687.484 127.443 685.253 126.174 683.023 124.904 680.849 124.269 678.731 124.269 676.799 124.269 675.349 124.821 674.383 125.925 673.417 127.029 672.934 128.251 672.934 129.592 672.934 132.088 674.962 135.337 679.018 139.34L699.132 159.332C700.638 157.287 701.679 154.673 702.257 151.492 702.835 148.312 703.123 145.853 703.123 144.118 703.123 142.838 702.83 142.027 702.245 141.686 701.659 141.345 700.708 141.144 699.392 141.082L698.96 141.02 697.943 141.082 697.943 140.555 707.595 140.493 707.595 141.082C706.567 140.958 705.873 141.237 705.513 141.918 705.154 142.6 704.799 144.117 704.449 146.471 703.584 152.667 702.111 157.252 700.031 160.225L704.695 164.862C706.936 167.09 709.208 168.204 711.51 168.204 713.176 168.204 714.903 167.667 716.692 166.594L717 167.059C714.241 169.019 711.255 170 708.042 170 704.665 170.015 701.57 168.619 698.755 165.809 698.755 165.727 698.642 165.582 698.416 165.375L696.906 163.919C692.611 167.973 687.084 170 680.324 170 673.811 170 668.962 168.329 665.777 164.986 662.592 161.643 661 157.96 661 153.936 661 150.449 662.073 147.42 664.22 144.851 666.366 142.282 669.309 140.647 673.047 139.946 671.985 138.412 671.176 137.02 670.621 135.772 670.066 134.523 669.789 133.186 669.789 131.762 669.789 129.512 670.59 127.489 672.194 125.694 673.797 123.898 676.336 123 679.811 123Z" fill="#222A35" fill-rule="evenodd"/><path d="M757.578 138.056 754.15 146.931 761.042 146.931ZM865.969 133.962 865.969 146.48 868.529 146.48C870.766 146.48 872.412 145.967 873.465 144.94 874.519 143.912 875.046 142.555 875.046 140.866 875.046 139.213 874.519 137.649 873.467 136.174 872.415 134.699 870.556 133.962 867.892 133.962ZM859.84 132.432 868.288 132.432C870.315 132.432 871.809 132.479 872.77 132.574 873.73 132.668 874.719 132.985 875.737 133.524 876.754 134.063 877.526 134.798 878.05 135.729 878.575 136.661 878.837 137.784 878.837 139.1 878.837 140.613 878.384 142.05 877.479 143.411 876.573 144.772 875.369 145.85 873.866 146.647L875.817 149.408C876.248 150.166 877.392 151.83 879.249 154.399 881.107 156.968 882.518 158.521 883.484 159.057 884.45 159.593 885.38 159.861 886.275 159.861 887.158 159.861 888.331 159.495 889.794 158.763L890.075 159.676C888.365 161.108 886.23 161.823 883.669 161.823 881.932 161.823 880.448 161.316 879.219 160.3 877.99 159.285 875.907 156.597 872.971 152.237 872.887 152.153 872.845 152.081 872.845 152.022L870.171 147.912 867.864 147.989 865.969 147.989 865.969 158.424C865.969 159.23 866.054 159.773 866.223 160.051 866.392 160.33 866.975 160.47 867.973 160.47L867.973 161.549 859.84 161.549 859.84 160.491C860.867 160.448 861.464 160.298 861.632 160.04 861.799 159.782 861.883 159.159 861.883 158.172L861.883 135.674C861.883 135.001 861.807 134.475 861.655 134.096 861.502 133.716 860.898 133.52 859.84 133.506ZM838.046 132.432 856.69 132.432 856.69 137.121 855.679 137.121C855.261 135.548 854.952 134.665 854.753 134.47 854.553 134.275 853.995 134.178 853.077 134.178L844.137 134.178 844.137 146.107 852.409 146.107C853.188 146.107 853.649 146.058 853.793 145.958 853.936 145.859 854.016 145.595 854.034 145.165L855.118 145.165 855.118 148.619 854.074 148.619C853.995 148.157 853.878 147.885 853.723 147.802 853.569 147.719 853.208 147.677 852.64 147.677L844.137 147.677 844.137 156.039C844.137 157.314 844.241 158.201 844.45 158.702 844.658 159.203 844.984 159.515 845.427 159.638 845.87 159.761 846.615 159.822 847.662 159.822L852.656 159.822C854.212 159.822 855.185 159.774 855.575 159.678 855.965 159.583 856.286 159.403 856.535 159.139 856.785 158.875 857.005 158.121 857.193 156.879L858.242 156.879 858.242 161.549 838.046 161.549 838.046 160.497C838.877 160.449 839.419 160.346 839.671 160.189 839.924 160.032 840.05 159.584 840.05 158.845L840.05 135.982C840.05 135.003 839.982 134.353 839.845 134.031 839.709 133.711 839.109 133.55 838.046 133.55ZM804.664 132.432 813.622 132.432 813.622 133.511C812.56 133.472 811.892 133.569 811.617 133.8 811.343 134.031 811.206 134.72 811.206 135.867L811.206 146.336 827.357 133.817C827.616 133.639 827.745 133.521 827.745 133.465 827.745 133.495 827.366 133.511 826.608 133.511L826.608 132.432 833.543 132.432 833.543 133.501C831.817 133.543 830.309 133.987 829.019 134.831L814.353 145.749 828.855 156.568C828.851 156.561 828.842 156.555 828.829 156.548 828.942 156.605 829.005 156.646 829.018 156.671 828.899 156.612 828.867 156.582 828.921 156.582 830.903 158.065 832.403 159.084 833.421 159.638 834.439 160.192 835.515 160.47 836.647 160.47L836.647 161.549 826.196 161.549 826.196 160.47C827.056 160.47 827.486 160.504 827.486 160.573 827.486 160.537 827.184 160.289 826.58 159.828L811.206 147.755 811.206 157.866C811.206 159.03 811.271 159.718 811.402 159.929 811.533 160.141 811.709 160.294 811.932 160.387 812.155 160.481 812.705 160.508 813.583 160.47L813.583 161.549 804.664 161.549 804.664 160.47C805.879 160.521 806.592 160.402 806.803 160.113 807.014 159.824 807.12 159.113 807.12 157.98L807.12 136.019C807.12 134.858 807.014 134.133 806.803 133.846 806.591 133.559 805.879 133.447 804.664 133.511ZM728 132.432 736.486 132.432C739.426 132.432 741.581 132.769 742.95 133.444 744.319 134.119 745.323 134.967 745.961 135.99 746.6 137.014 746.919 138.342 746.919 139.976 746.919 142.507 746.043 144.41 744.293 145.685 742.542 146.96 740.071 147.569 736.88 147.513L736.88 146.441C738.835 146.441 740.336 145.928 741.382 144.901 742.427 143.875 742.95 142.517 742.95 140.829 742.95 139.5 742.692 138.323 742.177 137.299 741.661 136.274 740.941 135.497 740.017 134.969 739.093 134.442 737.654 134.178 735.699 134.178L734.09 134.178 734.09 158.018C734.09 159.277 734.201 160 734.422 160.188 734.643 160.376 735.272 160.47 736.31 160.47L736.31 161.549 728 161.549 728 160.47C729.336 160.47 730.004 159.992 730.004 159.037L730.004 135.597C730.004 134.694 729.908 134.12 729.716 133.876 729.524 133.633 728.952 133.511 728 133.511ZM900.611 132C901.571 132 902.626 132.113 903.775 132.338 904.924 132.564 905.574 132.714 905.726 132.789 905.72 132.786 905.805 132.785 905.982 132.785L907.468 137.042 906.426 137.16C906.426 136.997 906.095 136.569 905.433 135.876 904.771 135.183 904.006 134.645 903.138 134.262 902.27 133.879 901.288 133.687 900.192 133.687 898.366 133.687 896.926 134.203 895.87 135.234 894.813 136.265 894.285 137.511 894.285 138.972 894.285 139.939 894.527 140.777 895.01 141.485 895.494 142.192 896.544 142.864 898.162 143.5 901.091 144.479 903.105 145.222 904.205 145.728 905.306 146.235 906.38 147.109 907.428 148.351 908.476 149.593 909 151.181 909 153.114 909 153.899 908.904 154.664 908.712 155.41 908.52 156.155 908.216 156.867 907.799 157.545 907.383 158.223 906.883 158.839 906.302 159.393 905.72 159.947 905.117 160.373 904.493 160.671 903.868 160.969 902.922 161.19 901.653 161.333 900.385 161.477 899.536 161.549 899.107 161.549L891.142 161.549 891.142 152.523 892.232 152.523C892.259 155.404 892.86 157.347 894.034 158.353 895.208 159.358 897.075 159.861 899.635 159.861 901.946 159.861 903.689 159.326 904.863 158.257 906.036 157.187 906.623 155.909 906.623 154.423 906.623 153.527 906.422 152.764 906.021 152.135 905.619 151.506 905.042 150.942 904.289 150.444 903.536 149.946 902 149.298 899.679 148.5 897.662 147.795 896.19 147.142 895.262 146.542 894.334 145.941 893.56 145.039 892.939 143.834 892.317 142.629 892.006 141.398 892.006 140.139 892.006 137.84 892.801 135.909 894.389 134.345 895.977 132.782 898.051 132 900.611 132ZM789.667 132C791.289 132 792.692 132.147 793.875 132.441 795.058 132.735 796.083 133.055 796.952 133.402L798.098 133.835C798.2 133.868 798.3 133.934 798.398 134.032L799.51 137.631 798.638 137.631C795.894 134.897 792.72 133.53 789.116 133.53 785.373 133.53 782.352 134.641 780.053 136.862 777.753 139.083 776.603 141.77 776.603 144.921 776.603 146.895 777.121 149.161 778.155 151.719 779.189 154.277 780.815 156.375 783.031 158.013 785.248 159.651 787.934 160.47 791.09 160.47 793.183 160.47 795.224 160.136 797.213 159.47 799.202 158.804 800.73 157.875 801.797 156.683L802.595 156.932 800.453 160.536C797.117 161.255 794.97 161.679 794.011 161.807 793.051 161.936 791.752 162 790.112 162 784.054 162 779.709 160.585 777.076 157.754 774.443 154.924 773.126 151.538 773.126 147.597 773.126 144.934 773.8 142.377 775.147 139.926 776.494 137.475 778.439 135.541 780.982 134.124 783.525 132.708 786.42 132 789.667 132ZM758.171 132 759.228 132 769.483 157.353C769.483 157.475 769.716 158.025 770.183 159.003 770.65 159.981 771.465 160.47 772.628 160.47L772.628 161.549 765.202 161.549 765.202 160.47C765.806 160.47 766.108 160.363 766.108 160.15 766.108 159.893 765.978 159.455 765.72 158.838 765.664 158.783 765.605 158.66 765.542 158.47 765.554 158.531 765.572 158.561 765.596 158.561L761.526 148.501 753.729 148.501 749.499 159.107C749.266 159.712 749.15 160.085 749.15 160.227 749.15 160.389 749.465 160.47 750.095 160.47L750.095 161.549 745.066 161.549 745.066 160.47C745.806 160.47 746.337 160.355 746.658 160.125 746.98 159.895 747.356 159.24 747.789 158.162Z" fill="#FFFFFF" fill-rule="evenodd"/><path d="M836.449 185.741C835.819 185.741 835.262 185.86 834.779 186.098 834.296 186.336 833.919 186.669 833.648 187.096 833.377 187.523 833.242 188.027 833.242 188.606 833.242 189.192 833.371 189.693 833.628 190.11 833.885 190.527 834.251 190.846 834.727 191.066 835.204 191.287 835.774 191.397 836.439 191.397 837.104 191.397 837.674 191.287 838.15 191.066 838.627 190.846 838.993 190.525 839.25 190.105 839.507 189.684 839.636 189.174 839.636 188.575 839.636 187.996 839.507 187.494 839.25 187.07 838.993 186.646 838.627 186.319 838.15 186.088 837.674 185.857 837.107 185.741 836.449 185.741ZM814.198 184.335 815.924 184.335 815.924 195.316 814.198 195.316ZM791.972 184.335 793.699 184.335 793.699 195.316 791.972 195.316ZM836.336 184.17C837.179 184.17 837.916 184.316 838.546 184.609 839.177 184.902 839.675 185.269 840.042 185.711L840.146 185.937 840.355 184.335 842 184.335 841.322 188.657C841.198 189.464 840.941 190.193 840.551 190.844 840.16 191.496 839.627 192.013 838.952 192.395 838.277 192.778 837.443 192.969 836.449 192.969 835.932 192.969 835.452 192.922 835.01 192.827L834.093 192.504 833.885 192.654C833.634 192.864 833.509 193.11 833.509 193.393 833.509 193.648 833.609 193.857 833.807 194.018 834.006 194.18 834.4 194.286 834.99 194.334L838.844 194.644C839.434 194.692 839.953 194.801 840.402 194.97 840.85 195.139 841.202 195.387 841.455 195.714 841.709 196.042 841.836 196.471 841.836 197.002 841.836 197.587 841.637 198.106 841.239 198.558 840.842 199.009 840.239 199.362 839.43 199.617 838.622 199.872 837.604 200 836.377 200 834.644 200 833.335 199.747 832.451 199.24 831.567 198.733 831.125 198.042 831.125 197.167 831.125 196.891 831.157 196.648 831.222 196.438 831.287 196.228 831.361 196.057 831.443 195.926L833.108 196.174C833.054 196.25 833.001 196.366 832.949 196.521 832.898 196.676 832.872 196.857 832.872 197.064 832.872 197.615 833.184 198.003 833.807 198.227 834.431 198.451 835.315 198.563 836.459 198.563 837.316 198.563 838.018 198.504 838.567 198.387 839.115 198.27 839.523 198.101 839.79 197.88 840.057 197.66 840.191 197.401 840.191 197.105 840.191 196.657 840.004 196.379 839.631 196.273 839.257 196.166 838.796 196.092 838.248 196.05L834.095 195.74C833.403 195.685 832.839 195.469 832.404 195.094 831.969 194.718 831.752 194.261 831.752 193.724 831.752 193.393 831.832 193.079 831.993 192.783 832.154 192.486 832.343 192.237 832.559 192.033 832.666 191.932 832.769 191.85 832.866 191.789L832.896 191.775 832.826 191.727C832.545 191.468 832.307 191.173 832.111 190.844 831.721 190.186 831.526 189.443 831.526 188.616 831.526 187.775 831.729 187.018 832.137 186.346 832.545 185.674 833.112 185.143 833.838 184.754 834.565 184.365 835.397 184.17 836.336 184.17ZM824.461 184.17C825.304 184.17 826.041 184.332 826.671 184.656 827.302 184.98 827.79 185.443 828.136 186.047 828.482 186.65 828.655 187.375 828.655 188.223 828.655 188.526 828.655 188.857 828.655 189.216 828.655 189.574 828.655 189.908 828.655 190.219L828.655 195.316 826.908 195.316 826.908 190.053C826.908 189.736 826.908 189.476 826.908 189.273 826.908 189.069 826.908 188.874 826.908 188.688 826.908 188.116 826.812 187.616 826.62 187.189 826.428 186.762 826.126 186.431 825.715 186.196 825.304 185.962 824.766 185.845 824.101 185.845 823.519 185.845 822.979 185.995 822.482 186.295 821.986 186.595 821.588 186.998 821.29 187.504 820.992 188.011 820.843 188.578 820.843 189.205L820.843 195.316 819.095 195.316 819.095 184.335 820.843 184.335 820.843 186.007 821.216 185.528C821.496 185.248 821.813 185.004 822.164 184.795 822.866 184.378 823.632 184.17 824.461 184.17ZM771.595 184.17C772.39 184.17 773.123 184.297 773.795 184.552 774.466 184.807 775.006 185.178 775.414 185.664 775.821 186.15 776.025 186.748 776.025 187.458 776.025 187.486 776.025 187.518 776.025 187.556 776.025 187.594 776.025 187.63 776.025 187.665L774.278 187.665C774.278 187.63 774.278 187.603 774.278 187.582 774.278 187.561 774.278 187.537 774.278 187.51 774.278 187.11 774.151 186.781 773.897 186.522 773.644 186.264 773.315 186.071 772.911 185.943 772.506 185.816 772.075 185.752 771.615 185.752 771.184 185.752 770.759 185.798 770.341 185.891 769.923 185.984 769.577 186.138 769.303 186.352 769.028 186.565 768.891 186.858 768.891 187.23 768.891 187.603 769.02 187.901 769.277 188.125 769.534 188.349 769.897 188.531 770.366 188.673 770.836 188.814 771.389 188.943 772.027 189.061 772.595 189.164 773.133 189.293 773.64 189.448 774.147 189.603 774.595 189.802 774.982 190.043 775.369 190.284 775.674 190.589 775.897 190.958 776.119 191.327 776.231 191.776 776.231 192.307 776.231 192.845 776.109 193.314 775.866 193.713 775.623 194.113 775.287 194.448 774.859 194.716 774.43 194.985 773.937 195.187 773.378 195.321 772.82 195.456 772.225 195.523 771.595 195.523 770.937 195.523 770.329 195.452 769.77 195.311 769.212 195.17 768.725 194.963 768.311 194.691 767.896 194.418 767.574 194.082 767.344 193.682 767.115 193.283 767 192.824 767 192.307 767 192.252 767 192.195 767 192.137 767 192.078 767 192.028 767 191.987L768.758 191.987C768.758 192.028 768.758 192.063 768.758 192.09 768.758 192.118 768.758 192.159 768.758 192.214 768.758 192.773 769.015 193.198 769.529 193.491 770.043 193.784 770.745 193.931 771.636 193.931 772.184 193.931 772.674 193.875 773.106 193.765 773.538 193.655 773.879 193.486 774.129 193.259 774.379 193.031 774.504 192.745 774.504 192.4 774.504 191.828 774.238 191.42 773.707 191.175 773.176 190.93 772.383 190.718 771.328 190.539 770.772 190.443 770.245 190.317 769.745 190.162 769.244 190.007 768.801 189.805 768.413 189.557 768.026 189.309 767.721 189 767.499 188.631 767.276 188.263 767.164 187.82 767.164 187.303 767.164 186.634 767.362 186.067 767.756 185.602 768.15 185.137 768.682 184.782 769.354 184.537 770.026 184.292 770.772 184.17 771.595 184.17ZM806.829 180.696 808.586 180.696 808.586 184.335 811.999 184.335 811.999 185.886 808.586 185.886 808.586 191.211C808.586 191.363 808.586 191.511 808.586 191.656 808.586 191.801 808.586 191.935 808.586 192.059 808.586 192.645 808.657 193.103 808.797 193.434 808.938 193.765 809.255 193.931 809.748 193.931 809.947 193.931 810.135 193.913 810.313 193.879 810.492 193.844 810.625 193.81 810.714 193.775L810.714 195.306C810.598 195.347 810.435 195.387 810.226 195.425 810.017 195.463 809.782 195.482 809.522 195.482 809.186 195.482 808.857 195.444 808.535 195.368 808.213 195.292 807.923 195.156 807.666 194.959 807.409 194.763 807.206 194.484 807.055 194.122 806.904 193.76 806.829 193.293 806.829 192.721 806.829 192.576 806.829 192.426 806.829 192.271 806.829 192.116 806.829 191.952 806.829 191.78L806.829 185.886 804.166 185.886 804.166 184.335 805.873 184.335C806.106 184.335 806.287 184.327 806.417 184.309 806.548 184.292 806.642 184.247 806.7 184.175 806.758 184.103 806.794 183.989 806.808 183.834 806.822 183.679 806.829 183.463 806.829 183.188ZM815.071 179.775C815.393 179.775 815.671 179.867 815.904 180.049 816.137 180.232 816.253 180.479 816.253 180.789 816.253 181.106 816.137 181.356 815.904 181.538 815.671 181.721 815.393 181.812 815.071 181.812 814.749 181.812 814.47 181.721 814.233 181.538 813.997 181.356 813.879 181.106 813.879 180.789 813.879 180.479 813.997 180.232 814.233 180.049 814.47 179.867 814.749 179.775 815.071 179.775ZM792.846 179.775C793.168 179.775 793.445 179.867 793.678 180.049 793.911 180.232 794.028 180.479 794.028 180.789 794.028 181.106 793.911 181.356 793.678 181.538 793.445 181.721 793.168 181.812 792.846 181.812 792.524 181.812 792.245 181.721 792.008 181.538 791.772 181.356 791.653 181.106 791.653 180.789 791.653 180.479 791.772 180.232 792.008 180.049 792.245 179.867 792.524 179.775 792.846 179.775ZM779.09 179.155 780.837 179.155 780.837 185.687 781.063 185.416C781.343 185.159 781.66 184.935 782.014 184.744 782.723 184.361 783.527 184.17 784.425 184.17 785.734 184.17 786.767 184.566 787.524 185.359 788.281 186.152 788.66 187.248 788.66 188.647 788.66 189.012 788.66 189.433 788.66 189.908 788.66 190.384 788.66 190.884 788.66 191.408L788.66 195.316 786.912 195.316 786.912 191.232C786.912 191.039 786.912 190.81 786.912 190.544 786.912 190.279 786.912 190.01 786.912 189.738 786.912 189.466 786.912 189.233 786.912 189.04 786.912 187.985 786.688 187.189 786.239 186.651 785.79 186.114 785.079 185.845 784.106 185.845 783.455 185.845 782.885 185.972 782.395 186.227 781.905 186.483 781.522 186.831 781.248 187.272 780.974 187.713 780.837 188.213 780.837 188.771L780.837 195.316 779.09 195.316ZM802.01 179C802.345 179 802.613 179.021 802.811 179.062 803.01 179.103 803.144 179.141 803.212 179.176L803.212 180.727C803.13 180.699 802.993 180.668 802.801 180.634 802.609 180.599 802.404 180.582 802.184 180.582 801.718 180.582 801.34 180.654 801.049 180.799 800.757 180.944 800.533 181.142 800.375 181.394 800.218 181.645 800.11 181.93 800.052 182.247 799.993 182.564 799.964 182.895 799.964 183.239L799.964 184.335 803.151 184.335 803.151 185.886 799.964 185.886 799.964 195.316 798.217 195.316 798.217 185.886 795.832 185.886 795.832 184.335 798.217 184.335 798.217 182.919C798.217 182.429 798.273 181.98 798.386 181.569 798.499 181.159 798.664 180.796 798.88 180.479 799.096 180.161 799.358 179.893 799.666 179.672 799.974 179.451 800.326 179.284 800.72 179.171 801.114 179.057 801.544 179 802.01 179Z" fill="#FFFFFF" fill-rule="evenodd"/><path d="M560.61 184.951C559.859 184.951 559.194 185.113 558.612 185.437 558.03 185.76 557.576 186.221 557.249 186.817 556.922 187.413 556.759 188.117 556.759 188.928 556.759 189.74 556.922 190.449 557.249 191.055 557.576 191.662 558.03 192.132 558.612 192.466 559.194 192.8 559.859 192.967 560.61 192.967 561.367 192.967 562.034 192.8 562.613 192.466 563.191 192.132 563.643 191.662 563.97 191.055 564.297 190.449 564.461 189.74 564.461 188.928 564.461 188.117 564.297 187.413 563.97 186.817 563.643 186.221 563.191 185.76 562.613 185.437 562.034 185.113 561.367 184.951 560.61 184.951ZM602.425 184.9C601.792 184.9 601.232 185.017 600.747 185.253 600.262 185.488 599.883 185.817 599.611 186.239 599.34 186.662 599.204 187.159 599.204 187.732 599.204 188.312 599.333 188.807 599.591 189.22 599.849 189.632 600.217 189.948 600.695 190.166 601.174 190.384 601.747 190.493 602.414 190.493 603.082 190.493 603.655 190.384 604.133 190.166 604.612 189.948 604.98 189.631 605.238 189.215 605.496 188.799 605.625 188.294 605.625 187.701 605.625 187.129 605.496 186.633 605.238 186.214 604.98 185.794 604.612 185.471 604.133 185.242 603.655 185.014 603.086 184.9 602.425 184.9ZM580.075 183.509 581.81 183.509 581.81 194.368 580.075 194.368ZM567.84 183.509 569.657 183.509 572.747 193.014 575.759 183.509 577.576 183.509 573.9 194.368 571.598 194.368ZM560.61 183.356C561.711 183.356 562.683 183.594 563.526 184.072 564.37 184.549 565.03 185.207 565.509 186.045 565.987 186.883 566.226 187.845 566.226 188.928 566.226 190.012 565.987 190.979 565.509 191.827 565.03 192.676 564.37 193.344 563.526 193.831 562.683 194.319 561.711 194.562 560.61 194.562 559.508 194.562 558.536 194.319 557.693 193.831 556.85 193.344 556.189 192.676 555.711 191.827 555.232 190.979 554.993 190.012 554.993 188.928 554.993 187.845 555.232 186.883 555.711 186.045 556.189 185.207 556.85 184.549 557.693 184.072 558.536 183.594 559.508 183.356 560.61 183.356ZM602.311 183.346C603.158 183.346 603.898 183.49 604.531 183.78 605.164 184.07 605.665 184.433 606.033 184.869L606.138 185.093 606.348 183.509 608 183.509 607.319 187.783C607.195 188.581 606.937 189.302 606.544 189.946 606.152 190.59 605.617 191.101 604.939 191.48 604.261 191.858 603.423 192.047 602.425 192.047 601.905 192.047 601.423 192 600.979 191.906L600.059 191.588 599.849 191.735C599.598 191.943 599.472 192.187 599.472 192.466 599.472 192.718 599.572 192.925 599.771 193.085 599.971 193.245 600.367 193.349 600.959 193.397L604.83 193.703C605.422 193.751 605.944 193.859 606.394 194.026 606.845 194.193 607.198 194.438 607.453 194.762 607.707 195.086 607.835 195.51 607.835 196.035 607.835 196.614 607.635 197.127 607.236 197.574 606.837 198.02 606.231 198.369 605.419 198.622 604.607 198.874 603.585 199 602.352 199 600.611 199 599.296 198.749 598.409 198.249 597.521 197.747 597.077 197.064 597.077 196.198 597.077 195.926 597.109 195.685 597.175 195.478 597.24 195.27 597.314 195.101 597.397 194.971L599.069 195.217C599.014 195.292 598.961 195.406 598.909 195.559 598.858 195.713 598.832 195.892 598.832 196.096 598.832 196.641 599.145 197.025 599.771 197.246 600.398 197.468 601.286 197.579 602.435 197.579 603.295 197.579 604.001 197.521 604.552 197.405 605.102 197.289 605.512 197.122 605.78 196.904 606.049 196.686 606.183 196.43 606.183 196.137 606.183 195.694 605.995 195.42 605.62 195.314 605.245 195.208 604.782 195.135 604.232 195.094L600.06 194.787C599.365 194.733 598.799 194.52 598.362 194.148 597.925 193.777 597.707 193.325 597.707 192.793 597.707 192.466 597.787 192.156 597.949 191.863 598.111 191.57 598.3 191.323 598.517 191.122 598.625 191.021 598.728 190.941 598.825 190.88L598.856 190.867 598.785 190.819C598.503 190.562 598.264 190.271 598.068 189.946 597.676 189.295 597.479 188.56 597.479 187.742 597.479 186.911 597.684 186.163 598.094 185.498 598.503 184.833 599.073 184.308 599.802 183.923 600.532 183.538 601.368 183.346 602.311 183.346ZM590.384 183.346C591.231 183.346 591.971 183.506 592.604 183.826 593.237 184.147 593.727 184.605 594.075 185.201 594.423 185.798 594.596 186.515 594.596 187.354 594.596 187.654 594.596 187.981 594.596 188.335 594.596 188.69 594.596 189.02 594.596 189.327L594.596 194.368 592.841 194.368 592.841 189.164C592.841 188.85 592.841 188.593 592.841 188.392 592.841 188.191 592.841 187.998 592.841 187.814 592.841 187.248 592.745 186.754 592.552 186.331 592.359 185.909 592.057 185.581 591.644 185.35 591.231 185.118 590.69 185.002 590.023 185.002 589.438 185.002 588.896 185.15 588.397 185.447 587.898 185.743 587.498 186.142 587.199 186.643 586.899 187.144 586.75 187.705 586.75 188.325L586.75 194.368 584.995 194.368 584.995 183.509 586.75 183.509 586.75 185.162 587.124 184.689C587.406 184.412 587.724 184.17 588.076 183.964 588.782 183.552 589.551 183.346 590.384 183.346ZM541.925 183.346C542.758 183.346 543.436 183.513 543.959 183.847 544.482 184.181 544.867 184.641 545.115 185.227L545.158 185.375 545.603 184.7C545.84 184.426 546.113 184.184 546.421 183.974 547.037 183.555 547.768 183.346 548.615 183.346 549.407 183.346 550.069 183.499 550.602 183.806 551.136 184.112 551.539 184.544 551.81 185.099 552.082 185.655 552.218 186.314 552.218 187.078 552.218 187.364 552.218 187.718 552.218 188.141 552.218 188.564 552.218 189.041 552.218 189.573L552.218 194.368 550.463 194.368 550.463 189.573C550.463 189.109 550.463 188.726 550.463 188.422 550.463 188.119 550.463 187.862 550.463 187.65 550.463 187.384 550.446 187.098 550.411 186.791 550.377 186.485 550.291 186.197 550.153 185.927 550.016 185.658 549.797 185.437 549.498 185.263 549.198 185.089 548.78 185.002 548.243 185.002 547.713 185.002 547.271 185.101 546.917 185.299 546.562 185.496 546.28 185.755 546.07 186.076 545.86 186.396 545.71 186.742 545.621 187.113 545.531 187.485 545.487 187.841 545.487 188.182L545.487 188.3C545.487 188.726 545.487 189.211 545.487 189.757L545.487 194.368 543.742 194.368 543.742 189.573C543.742 189.15 543.742 188.784 543.742 188.473 543.742 188.163 543.742 187.903 543.742 187.691 543.742 187.425 543.723 187.137 543.685 186.827 543.647 186.517 543.559 186.224 543.422 185.948 543.284 185.672 543.069 185.445 542.777 185.268 542.484 185.091 542.08 185.002 541.563 185.002 541.04 185.002 540.6 185.103 540.242 185.304 539.884 185.505 539.595 185.769 539.375 186.096 539.154 186.423 538.996 186.783 538.9 187.175 538.803 187.567 538.755 187.954 538.755 188.335L538.755 194.368 537 194.368 537 183.509 538.755 183.509 538.755 184.946 538.901 184.725C539.143 184.444 539.419 184.198 539.731 183.985 540.354 183.559 541.085 183.346 541.925 183.346ZM580.953 179C581.276 179 581.555 179.09 581.789 179.271 582.023 179.452 582.14 179.695 582.14 180.002 582.14 180.316 582.023 180.563 581.789 180.743 581.555 180.924 581.276 181.014 580.953 181.014 580.629 181.014 580.349 180.924 580.111 180.743 579.874 180.563 579.755 180.316 579.755 180.002 579.755 179.695 579.874 179.452 580.111 179.271 580.349 179.09 580.629 179 580.953 179Z" fill="#FFFFFF" fill-rule="evenodd"/><path d="M669.697 189.559 668.444 189.88C667.788 189.988 667.103 190.076 666.388 190.146 665.351 190.243 664.57 190.427 664.044 190.698 663.518 190.969 663.255 191.424 663.255 192.062 663.255 192.667 663.472 193.123 663.905 193.432 664.338 193.741 665.008 193.896 665.914 193.896 666.622 193.896 667.261 193.786 667.831 193.568 668.401 193.349 668.855 193.024 669.192 192.594 669.528 192.163 669.697 191.628 669.697 190.99ZM654.101 185.677C653.517 185.677 652.971 185.821 652.463 186.109 651.954 186.398 651.544 186.785 651.231 187.271 650.919 187.757 650.762 188.302 650.762 188.906L650.752 188.906 650.752 190.469 650.762 190.469C650.762 190.483 650.762 190.498 650.762 190.516 650.762 190.533 650.762 190.549 650.762 190.563 650.762 191.16 650.919 191.705 651.231 192.198 651.544 192.691 651.954 193.083 652.463 193.375 652.971 193.667 653.517 193.812 654.101 193.812 655.07 193.812 655.876 193.477 656.518 192.807 657.161 192.137 657.482 191.115 657.482 189.74 657.482 188.358 657.162 187.335 656.523 186.672 655.884 186.009 655.077 185.677 654.101 185.677ZM720.435 185.635C719.803 185.635 719.245 185.755 718.76 185.995 718.276 186.234 717.898 186.569 717.626 187 717.355 187.431 717.219 187.937 717.219 188.521 717.219 189.111 717.348 189.616 717.606 190.036 717.864 190.457 718.231 190.778 718.709 191 719.186 191.222 719.758 191.333 720.425 191.333 721.091 191.333 721.663 191.222 722.14 191 722.618 190.778 722.986 190.455 723.243 190.031 723.501 189.608 723.63 189.094 723.63 188.49 723.63 187.906 723.501 187.401 723.243 186.974 722.986 186.547 722.618 186.217 722.14 185.984 721.663 185.752 721.094 185.635 720.435 185.635ZM698.125 184.219 699.857 184.219 699.857 195.281 698.125 195.281ZM720.321 184.052C721.167 184.052 721.905 184.2 722.537 184.495 723.169 184.79 723.669 185.16 724.037 185.604L724.141 185.833 724.351 184.219 726 184.219 725.32 188.573C725.196 189.385 724.938 190.12 724.547 190.776 724.155 191.432 723.621 191.953 722.944 192.339 722.268 192.724 721.431 192.917 720.435 192.917 719.916 192.917 719.435 192.869 718.992 192.773L718.073 192.449 717.864 192.599C717.613 192.811 717.487 193.059 717.487 193.344 717.487 193.601 717.587 193.811 717.786 193.974 717.986 194.137 718.381 194.243 718.971 194.292L722.836 194.604C723.427 194.653 723.947 194.762 724.397 194.932 724.847 195.102 725.2 195.352 725.454 195.682 725.708 196.012 725.835 196.444 725.835 196.979 725.835 197.569 725.636 198.092 725.237 198.547 724.839 199.002 724.234 199.358 723.424 199.615 722.613 199.872 721.593 200 720.363 200 718.624 200 717.312 199.745 716.426 199.234 715.54 198.724 715.096 198.028 715.096 197.146 715.096 196.868 715.129 196.623 715.194 196.411 715.26 196.2 715.333 196.028 715.416 195.896L717.085 196.146C717.03 196.222 716.977 196.339 716.926 196.495 716.874 196.651 716.848 196.833 716.848 197.042 716.848 197.597 717.161 197.988 717.786 198.214 718.411 198.439 719.298 198.552 720.445 198.552 721.304 198.552 722.008 198.493 722.558 198.375 723.107 198.257 723.516 198.087 723.784 197.865 724.052 197.642 724.186 197.382 724.186 197.083 724.186 196.632 723.999 196.352 723.625 196.245 723.25 196.137 722.788 196.063 722.238 196.021L718.075 195.708C717.381 195.653 716.816 195.436 716.38 195.057 715.943 194.679 715.725 194.219 715.725 193.677 715.725 193.344 715.806 193.028 715.967 192.729 716.129 192.431 716.318 192.179 716.534 191.974 716.642 191.872 716.745 191.789 716.842 191.728L716.872 191.714 716.802 191.665C716.52 191.404 716.282 191.108 716.086 190.776 715.694 190.113 715.498 189.365 715.498 188.531 715.498 187.684 715.703 186.922 716.112 186.245 716.52 185.568 717.089 185.033 717.817 184.641 718.545 184.248 719.38 184.052 720.321 184.052ZM708.416 184.052C709.261 184.052 709.999 184.215 710.631 184.542 711.264 184.868 711.753 185.335 712.1 185.943 712.447 186.55 712.62 187.281 712.62 188.135 712.62 188.441 712.62 188.774 712.62 189.135 712.62 189.497 712.62 189.833 712.62 190.146L712.62 195.281 710.868 195.281 710.868 189.979C710.868 189.66 710.868 189.398 710.868 189.193 710.868 188.988 710.868 188.792 710.868 188.604 710.868 188.028 710.772 187.524 710.58 187.094 710.388 186.663 710.085 186.33 709.673 186.094 709.261 185.858 708.721 185.74 708.055 185.74 707.471 185.74 706.93 185.891 706.432 186.193 705.934 186.495 705.535 186.901 705.236 187.411 704.938 187.922 704.788 188.493 704.788 189.125L704.788 195.281 703.036 195.281 703.036 184.219 704.788 184.219 704.788 185.903 705.162 185.421C705.443 185.138 705.76 184.892 706.112 184.682 706.817 184.262 707.584 184.052 708.416 184.052ZM679.82 184.052C680.616 184.052 681.328 184.175 681.953 184.422 682.578 184.668 683.107 184.997 683.54 185.406 683.973 185.816 684.304 186.266 684.534 186.755 684.765 187.245 684.88 187.733 684.88 188.219 684.88 188.226 684.88 188.236 684.88 188.25 684.88 188.264 684.88 188.278 684.88 188.292L683.138 188.292C683.138 188.257 683.135 188.217 683.128 188.172 683.121 188.127 683.114 188.08 683.107 188.031 683.052 187.566 682.877 187.158 682.581 186.807 682.286 186.457 681.901 186.181 681.427 185.979 680.953 185.778 680.414 185.677 679.809 185.677 679.129 185.677 678.499 185.825 677.918 186.12 677.338 186.415 676.87 186.863 676.516 187.464 676.163 188.064 675.986 188.823 675.986 189.74 675.986 190.649 676.161 191.41 676.511 192.021 676.862 192.632 677.327 193.092 677.908 193.401 678.488 193.71 679.122 193.865 679.809 193.865 680.551 193.865 681.163 193.747 681.644 193.51 682.125 193.274 682.487 192.96 682.731 192.568 682.975 192.175 683.11 191.753 683.138 191.302L684.88 191.302C684.88 191.802 684.77 192.3 684.55 192.797 684.33 193.293 684.007 193.745 683.581 194.151 683.155 194.557 682.628 194.882 681.999 195.125 681.371 195.368 680.644 195.49 679.82 195.49 678.775 195.49 677.827 195.259 676.975 194.797 676.123 194.335 675.448 193.674 674.95 192.813 674.452 191.951 674.203 190.927 674.203 189.74 674.203 188.552 674.452 187.533 674.95 186.682 675.448 185.832 676.123 185.181 676.975 184.729 677.827 184.278 678.775 184.052 679.82 184.052ZM666.698 184.052C667.591 184.052 668.396 184.189 669.114 184.464 669.832 184.738 670.403 185.144 670.825 185.682 671.248 186.221 671.459 186.885 671.459 187.677 671.459 187.823 671.459 187.967 671.459 188.109 671.459 188.252 671.459 188.396 671.459 188.542L671.459 193.198C671.459 193.441 671.469 193.677 671.49 193.906 671.51 194.135 671.545 194.337 671.593 194.51 671.655 194.719 671.723 194.887 671.799 195.016 671.875 195.144 671.936 195.233 671.984 195.281L670.222 195.281C670.188 195.247 670.136 195.165 670.068 195.036 669.999 194.908 669.934 194.757 669.872 194.583 669.824 194.444 669.786 194.269 669.758 194.057L669.747 193.869 669.073 194.583C668.664 194.868 668.171 195.09 667.594 195.25 667.017 195.41 666.364 195.49 665.636 195.49 664.805 195.49 664.078 195.358 663.456 195.094 662.835 194.83 662.352 194.45 662.008 193.953 661.665 193.457 661.493 192.861 661.493 192.167 661.493 191.444 661.679 190.842 662.05 190.359 662.421 189.877 662.943 189.5 663.616 189.229 664.289 188.958 665.073 188.778 665.966 188.688 667.312 188.549 668.271 188.411 668.841 188.276 669.411 188.141 669.697 187.92 669.697 187.615 669.697 187.608 669.697 187.602 669.697 187.599 669.697 187.596 669.697 187.59 669.697 187.583 669.697 186.944 669.439 186.467 668.924 186.151 668.408 185.835 667.663 185.677 666.687 185.677 665.67 185.677 664.88 185.856 664.317 186.214 663.754 186.571 663.472 187.149 663.472 187.948L661.74 187.948C661.74 187.122 661.95 186.418 662.369 185.839 662.788 185.259 663.371 184.816 664.116 184.51 664.861 184.205 665.722 184.052 666.698 184.052ZM654.349 184.052C655.235 184.052 656.053 184.273 656.802 184.714 657.55 185.155 658.152 185.799 658.605 186.646 659.058 187.493 659.285 188.524 659.285 189.74 659.285 190.976 659.062 192.023 658.615 192.88 658.169 193.738 657.571 194.387 656.822 194.828 656.073 195.269 655.249 195.49 654.349 195.49 653.504 195.49 652.714 195.28 651.978 194.859 651.611 194.649 651.278 194.4 650.98 194.111L650.752 193.826 650.752 199.833 649 199.833 649 184.219 650.752 184.219 650.752 185.668 650.98 185.389C651.278 185.107 651.611 184.865 651.978 184.661 652.714 184.255 653.504 184.052 654.349 184.052ZM699.001 179.625C699.324 179.625 699.603 179.717 699.836 179.901 700.07 180.085 700.187 180.333 700.187 180.646 700.187 180.965 700.07 181.217 699.836 181.401 699.603 181.585 699.324 181.677 699.001 181.677 698.679 181.677 698.399 181.585 698.162 181.401 697.924 181.217 697.806 180.965 697.806 180.646 697.806 180.333 697.924 180.085 698.162 179.901 698.399 179.717 698.679 179.625 699.001 179.625ZM687.438 179 689.108 179 689.108 188.313 693.838 184.219 696.105 184.219 691.529 188.29 696.146 195.281 694.26 195.281 690.406 189.294 689.108 190.431 689.108 195.281 687.438 195.281Z" fill="#FFFFFF" fill-rule="evenodd"/><path d="M625 179C625 177.343 626.343 176 628 176L628 176C629.657 176 631 177.343 631 179L631 199C631 200.657 629.657 202 628 202L628 202C626.343 202 625 200.657 625 199Z" fill="#C00000" fill-rule="evenodd"/><path d="M743 179C743 177.343 744.343 176 746 176L746 176C747.657 176 749 177.343 749 179L749 199C749 200.657 747.657 202 746 202L746 202C744.343 202 743 200.657 743 199Z" fill="#C00000" fill-rule="evenodd"/></g></svg>