<?xml version="1.0" encoding="utf-8"?>
<!-- Generator: Adobe Illustrator 27.5.0, SVG Export Plug-In . SVG Version: 6.00 Build 0)  -->
<svg version="1.1" id="Layer_3" xmlns="http://www.w3.org/2000/svg" xmlns:xlink="http://www.w3.org/1999/xlink" x="0px" y="0px"
	 viewBox="0 0 500 500" style="enable-background:new 0 0 500 500;" xml:space="preserve">
<rect style="fill:#FFFFFF;" width="500" height="500"/>
<g>
	<g>
		<rect x="138.22" y="304.342" style="fill:#DDD4BC;" width="178.539" height="9.127"/>
	</g>
	<g>
		<rect x="119.11" y="350.683" style="fill:#DDD4BC;" width="178.539" height="9.127"/>
	</g>
	<g>
		<path style="fill:#EAE5DC;" d="M433.238,246.198h-32.14c-2.217,0-4.014,1.797-4.014,4.015v14.36c0,2.217,1.797,4.015,4.014,4.015
			h32.14c2.217,0,4.015-1.797,4.015-4.015v-14.36C437.253,247.995,435.455,246.198,433.238,246.198z"/>
	</g>
	<g>
		<path style="fill:#EAE5DC;" d="M460.991,277.741h-32.14c-2.217,0-4.015,1.797-4.015,4.014v14.36c0,2.217,1.797,4.014,4.015,4.014
			h32.14c2.217,0,4.015-1.797,4.015-4.014v-14.36C465.006,279.538,463.208,277.741,460.991,277.741z"/>
	</g>
	<g>
		<g>
			<path style="fill:#70BA7C;" d="M205.928,307.649c0.953,3.744-3.679,6.833-4.97,3.88c-3.132,1.702-5.378,4.902-5.378,4.902
				c0.875,3.053-1.498,7.216-5.038,6.467c-6.536,12.254-1.03,32.349-1.03,32.349c3.644-10.177,15.508-14.966,15.781-14.966
				c0.272,0,3.359-4.72,3.359-4.72c-4.752-5.273,4.266-11.8,8.896-7.534l3.994-3.086c-6.717-7.806,5.171-11.205,6.536-3.631
				c2.515-4.247,7.141-6.287,13.048-6.989C230.777,304.177,218.207,302.405,205.928,307.649z"/>
		</g>
		<g>
			<path style="fill:#042C31;" d="M211.958,312.117c-16,8.355-21.247,32.913-22.76,43.083c-0.026,0.174,0.094,0.335,0.268,0.361
				c0.016,0.002,0.031,0.003,0.047,0.003c0.155,0,0.29-0.113,0.314-0.271c1.498-10.075,6.683-34.394,22.425-42.613
				c8.037-4.197,17.703-3.549,28.732,1.925c0.156,0.078,0.348,0.014,0.426-0.144c0.078-0.157,0.014-0.347-0.143-0.426
				C230.046,308.467,220.185,307.821,211.958,312.117z"/>
		</g>
		<g>
			<polygon style="fill:#67999B;" points="169.187,416.075 209.838,416.075 215.187,355.247 163.838,355.247 			"/>
		</g>
		<g>
			<path style="fill:#042C31;" d="M214.402,363.852h-49.78c-0.176,0-0.318,0.142-0.318,0.318c0,0.175,0.142,0.318,0.318,0.318h49.78
				c0.175,0,0.318-0.142,0.318-0.318C214.72,363.995,214.578,363.852,214.402,363.852z"/>
		</g>
		<g>
			<path style="fill:#042C31;" d="M212.512,385.343h-47.89c-0.176,0-0.318,0.142-0.318,0.318c0,0.175,0.142,0.318,0.318,0.318h47.89
				c0.175,0,0.318-0.142,0.318-0.318C212.83,385.485,212.688,385.343,212.512,385.343z"/>
		</g>
		<g>
			<path style="fill:#FFFFFF;" d="M212.14,316.13c-1.004,0.436-1.545,1.419-1.208,2.196c0.337,0.777,1.425,1.052,2.429,0.616
				s1.545-1.419,1.208-2.196C214.232,315.97,213.145,315.694,212.14,316.13z"/>
		</g>
		<g>
			<path style="fill:#FFFFFF;" d="M203.428,322.506c-1.095,0.885-1.428,2.29-0.743,3.136c0.685,0.847,2.127,0.815,3.222-0.07
				c1.095-0.885,1.428-2.29,0.743-3.136C205.965,321.589,204.522,321.621,203.428,322.506z"/>
		</g>
		<g>
			<path style="fill:#FFFFFF;" d="M201.908,315.495c-0.694,0.561-0.905,1.451-0.471,1.987c0.434,0.536,1.348,0.517,2.042-0.045
				c0.694-0.561,0.905-1.451,0.471-1.987S202.601,314.934,201.908,315.495z"/>
		</g>
		<g>
			<path style="fill:#FFFFFF;" d="M192.538,329.53c-0.344,0.52-0.297,1.158,0.105,1.423c0.402,0.266,1.007,0.06,1.351-0.46
				c0.344-0.52,0.297-1.158-0.105-1.423C193.487,328.804,192.882,329.01,192.538,329.53z"/>
		</g>
		<g>
			<path style="fill:#70BA7C;" d="M192.04,355.247c14.569-12.583,32.678-10.019,32.678-10.019
				C200.754,336.786,192.04,355.247,192.04,355.247z"/>
		</g>
		<g>
			<path style="fill:#70BA7C;" d="M187.353,339.11c-12.131-25.951-32.211-13.262-32.211-13.262
				c23.192-3.631,35.165,24.74,35.165,24.74c1.171-35.073-8.07-53.968-8.07-53.968C179.332,309.147,187.353,339.11,187.353,339.11z"
				/>
		</g>
		<g>
			<path style="fill:#70BA7C;" d="M162.994,346.181c0,0,18.363,0.363,26.519,10.348
				C189.512,356.529,177.154,339.101,162.994,346.181z"/>
		</g>
	</g>
	<g>
		<g>
			<rect x="50.619" y="355.247" style="fill:#FFDB8A;" width="82.42" height="60.828"/>
		</g>
		<g>
			<rect x="67.684" y="316.928" style="fill:#FFDB8A;" width="51.921" height="38.319"/>
		</g>
		<g style="opacity:0.5;">
			<g>
				<rect x="109.257" y="355.247" style="fill:#F9C1BB;" width="23.782" height="60.828"/>
			</g>
		</g>
		<g style="opacity:0.5;">
			<g>
				<rect x="99.272" y="316.928" style="fill:#F9C1BB;" width="20.333" height="38.319"/>
			</g>
		</g>
		<g>
			<rect x="50.619" y="354.929" style="fill:#FFFFFF;" width="82.42" height="0.636"/>
		</g>
		<g>
			<rect x="59.878" y="403.356" style="fill:#FFFFFF;" width="18.154" height="9.985"/>
		</g>
		<g>
			<rect x="79.212" y="318.666" style="fill:#FFFFFF;" width="8.986" height="3.268"/>
		</g>
	</g>
	<g>
		<g>
			<g>
				<rect x="247.048" y="299.646" style="fill:#FFDB8A;" width="56.677" height="44.843"/>
			</g>
			<g style="opacity:0.5;">
				<g>
					<rect x="282.72" y="299.646" style="fill:#F9C1BB;" width="21.004" height="44.843"/>
				</g>
			</g>
			<g>
				<rect x="252.748" y="307.498" style="fill:#FFFFFF;" width="22.638" height="22.882"/>
			</g>
		</g>
		<g>
			<g>
				<rect x="231.798" y="344.489" style="fill:#FFDB8A;" width="119.894" height="71.162"/>
			</g>
			<g style="opacity:0.5;">
				<g>
					<rect x="231.798" y="344.489" style="fill:#F9C1BB;" width="36.49" height="71.586"/>
				</g>
			</g>
			<g>
				<rect x="318.03" y="394.57" style="fill:#FFFFFF;" width="29.41" height="16.361"/>
			</g>
			<g>
				<path style="fill:#042C31;" d="M256.503,350.509h-13.828c-2.097,0-3.797,1.7-3.797,3.797l0,0c0,2.097,1.7,3.797,3.797,3.797
					h13.828c2.097,0,3.797-1.7,3.797-3.797l0,0C260.3,352.209,258.6,350.509,256.503,350.509z"/>
			</g>
		</g>
		<g>
			<g>
				<rect x="303.725" y="307.997" style="fill:#FFDB8A;" width="47.967" height="36.492"/>
			</g>
			<g style="opacity:0.5;">
				<g>
					<rect x="321.117" y="307.997" style="fill:#F9C1BB;" width="30.575" height="36.492"/>
				</g>
			</g>
		</g>
	</g>
	<g>
		<rect x="231.798" y="344.171" style="fill:#FFFFFF;" width="119.893" height="0.635"/>
	</g>
	<g>
		<g>
			<g>
				<path style="fill:#477272;" d="M453.029,350.509c0-0.424-0.21-0.797-0.529-1.028l-13.421-120.254l-2.527,0.282l6.584,58.992
					h-51.281l-5.435-59.25l-2.532,0.232l17.125,186.706l2.532-0.232l-5.887-64.179h52.539l7.192,64.435l2.527-0.281l-7.209-64.588
					C452.905,351.122,453.029,350.831,453.029,350.509z M397.426,349.238l-5.338-58.196h51.331l6.495,58.196H397.426z"/>
			</g>
		</g>
		<g>
			<g>
				<path style="fill:#67999B;" d="M437.53,235.486h-59.632c-0.702,0-1.271,0.569-1.271,1.271c0,0.702,0.569,1.271,1.271,1.271
					h59.632c0.701,0,1.271-0.569,1.271-1.271C438.801,236.055,438.231,235.486,437.53,235.486z"/>
			</g>
		</g>
		<g>
			<g>
				<path style="fill:#B7D5D4;" d="M440.564,227.625H378.93c-2.406,0-4.357,1.951-4.357,4.357c0,2.406,1.951,4.357,4.357,4.357
					h61.633c2.406,0,4.357-1.951,4.357-4.357C444.921,229.576,442.97,227.625,440.564,227.625z"/>
			</g>
		</g>
		<g>
			<path style="fill:#67999B;" d="M428.009,288.501h-51.281l6.584-58.992l-2.527-0.282l-13.421,120.254
				c-0.32,0.231-0.529,0.604-0.529,1.029c0,0.322,0.124,0.613,0.321,0.837l-7.208,64.588l2.526,0.281l7.192-64.435h52.539
				l-5.887,64.179l2.532,0.232l17.125-186.706l-2.532-0.232L428.009,288.501z M422.438,349.238H369.95l6.495-58.196h51.331
				L422.438,349.238z"/>
		</g>
	</g>
	<g>
		<rect x="196.579" y="277.992" style="fill:#DDD4BC;" width="116.716" height="9.127"/>
	</g>
	<g>
		<path style="fill:#DDD4BC;" d="M194.037,72.9c-0.702,0-1.271,0.569-1.271,1.271v199.151c0,0.702,0.569,1.271,1.271,1.271
			c0.702,0,1.271-0.569,1.271-1.271V74.171C195.308,73.469,194.739,72.9,194.037,72.9z"/>
	</g>
	<g>
		<path style="fill:#DDD4BC;" d="M309.251,85.226H200.623c-0.702,0-1.271,0.569-1.271,1.271v186.826
			c0,0.702,0.569,1.271,1.271,1.271h108.627c0.702,0,1.271-0.569,1.271-1.271V86.497C310.521,85.795,309.953,85.226,309.251,85.226z
			 M260.482,272.052h-58.588V181.18h58.588V272.052z M260.482,178.639h-58.588V87.768h58.588V178.639z M307.98,272.052h-44.957
			V181.18h44.957V272.052z M307.98,178.639h-44.957V87.768h44.957V178.639z"/>
	</g>
	<g>
		<path style="fill:#EAE5DC;" d="M103.204,199.882h-32.14c-2.217,0-4.015,1.797-4.015,4.014v14.36c0,2.217,1.797,4.015,4.015,4.015
			h32.14c2.217,0,4.015-1.798,4.015-4.015v-14.36C107.219,201.679,105.422,199.882,103.204,199.882z"/>
	</g>
	<g>
		<path style="fill:#EAE5DC;" d="M135.365,235.004h-32.14c-2.217,0-4.015,1.797-4.015,4.015v14.36c0,2.217,1.797,4.014,4.015,4.014
			h32.14c2.217,0,4.015-1.797,4.015-4.014v-14.36C139.38,236.801,137.583,235.004,135.365,235.004z"/>
	</g>
	<g>
		<path style="fill:#EAE5DC;" d="M66.689,235.004h-32.14c-2.217,0-4.014,1.797-4.014,4.015v14.36c0,2.217,1.797,4.014,4.014,4.014
			h32.14c2.217,0,4.015-1.797,4.015-4.014v-14.36C70.704,236.801,68.907,235.004,66.689,235.004z"/>
	</g>
	<g>
		<path style="fill:#EAE5DC;" d="M433.29,98.698h-32.14c-2.217,0-4.015,1.797-4.015,4.015v14.36c0,2.217,1.797,4.015,4.015,4.015
			h32.14c2.217,0,4.015-1.797,4.015-4.015v-14.36C437.305,100.495,435.507,98.698,433.29,98.698z"/>
	</g>
	<g>
		<path style="fill:#EAE5DC;" d="M109.715,132.753h-32.14c-2.217,0-4.015,1.797-4.015,4.015v14.36c0,2.217,1.797,4.015,4.015,4.015
			h32.14c2.217,0,4.015-1.798,4.015-4.015v-14.36C113.729,134.551,111.932,132.753,109.715,132.753z"/>
	</g>
	<g>
		<path style="fill:#EAE5DC;" d="M465.451,133.82h-32.14c-2.217,0-4.015,1.797-4.015,4.014v14.36c0,2.217,1.797,4.015,4.015,4.015
			h32.14c2.217,0,4.015-1.797,4.015-4.015v-14.36C469.465,135.618,467.668,133.82,465.451,133.82z"/>
	</g>
	<g>
		<path style="fill:#EAE5DC;" d="M153.96,106.375h-32.14c-2.217,0-4.015,1.797-4.015,4.015v14.36c0,2.217,1.797,4.015,4.015,4.015
			h32.14c2.217,0,4.015-1.797,4.015-4.015v-14.36C157.975,108.173,156.177,106.375,153.96,106.375z"/>
	</g>
	<g>
		<path style="fill:#EAE5DC;" d="M396.775,133.82h-32.14c-2.217,0-4.015,1.797-4.015,4.014v14.36c0,2.217,1.797,4.015,4.015,4.015
			h32.14c2.217,0,4.015-1.797,4.015-4.015v-14.36C400.789,135.618,398.992,133.82,396.775,133.82z"/>
	</g>
	<g>
		<path style="fill:#CCC6BA;" d="M161.087,417.296c-26.67,0-48.29,2.195-48.29,4.902s21.62,4.902,48.29,4.902
			s48.29-2.194,48.29-4.902S187.757,417.296,161.087,417.296z"/>
	</g>
	<g>
		<path style="fill:#CCC6BA;" d="M346.131,417.296c-41.35,0-74.87,2.195-74.87,4.902s33.521,4.902,74.87,4.902
			c41.35,0,74.87-2.194,74.87-4.902S387.48,417.296,346.131,417.296z"/>
	</g>
	<g>
		<g>
			<path style="fill:#FFBB90;" d="M310.088,407.573c2.155,7.094,7.136,8.033,15.113,2.451l3.812-10.212l-16.475-2.859
				L310.088,407.573z"/>
		</g>
		<g>
			<path style="fill:#FF847B;" d="M386.287,392.335l6.58,8.689c8.182,3.617,14.621,3.736,16.206-5.887l-10.031-13.613
				L386.287,392.335z"/>
		</g>
		<g>
			<path style="fill:#FF8883;" d="M385.019,157.219c-25.688-1.868-52.874,1.868-66.081,13.441
				c-13.207,11.573,0.908,34.01,0.908,34.01l5.628,49.953c15.886,3.319,33.741,2.974,53.01,0c1.488-22.418,1.417-45.441,0-68.986
				l10.53-3.086C386.038,175.374,385.097,166.629,385.019,157.219z"/>
		</g>
		<g>
			<path style="fill:#042C31;" d="M357.832,154.192c-0.172,0.034-0.284,0.201-0.25,0.373c0.028,0.143,2.695,14.358-9.135,17.513
				c-11.876,3.165-19.182-8.455-19.254-8.573c-0.091-0.15-0.288-0.196-0.437-0.104c-0.149,0.092-0.196,0.287-0.105,0.437
				c0.066,0.107,5.912,9.425,15.718,9.425c1.341,0,2.756-0.174,4.241-0.57c12.398-3.306,9.624-18.101,9.594-18.25
				C358.171,154.269,358,154.156,357.832,154.192z"/>
		</g>
		<g>
			<path style="fill:#F9C1BB;" d="M385.019,157.219c-4.124-0.3-8.286-0.453-12.424-0.455c-0.012,0.275,0.075,0.567-0.034,0.833
				c-16.232,39.614-41.253,20.673-41.253,20.673l5.148,8.639l-15.34,19.334l-1.271-1.572l5.628,49.953
				c15.886,3.319,33.741,2.974,53.01,0c1.488-22.418,1.417-45.441,0-68.986l10.53-3.086
				C386.038,175.374,385.097,166.629,385.019,157.219z"/>
		</g>
		<g>
			<g>
				<path style="fill:#FFBB90;" d="M326.109,123.369c0,0,6.082,30.68,10.439,33.404c4.357,2.723,18.744-7.897,18.744-7.897
					l-4.493-36.49C350.799,112.386,325.791,111.614,326.109,123.369z"/>
			</g>
			<g>
				<path style="fill:#042C31;" d="M349.891,106.395c-19.879,0.772-24.077,1.089-24.417,1.634c-0.34,0.545-0.068,4.347-0.068,4.347
					s-4.017-1.419-4.085-0.875c-0.068,0.545,0.885,4.561,0.885,4.561s-4.221-0.953-3.268,0.545c2.539,3.99,7.171,6.762,7.171,6.762
					c3.495-4.947,4.551-1.648,7.104-4.115c2.835-2.739,11.05-5.916,13.773-5.643c2.723,0.272,5.827,15.134,5.827,15.134
					S355.405,109.254,349.891,106.395z"/>
			</g>
			<g>
				<path style="fill:#042C31;" d="M336.068,140.965c-1.307,0.129-2.974,0.045-3.49-1.077c-0.577-1.256,0.429-3.482,2.446-5.412
					c0.169-0.162,0.175-0.43,0.013-0.599c-0.162-0.168-0.429-0.175-0.599-0.013c-2.31,2.21-3.367,4.773-2.63,6.377
					c0.352,0.766,1.229,1.615,3.393,1.615c0.292,0,0.609-0.015,0.95-0.049c0.233-0.023,0.403-0.23,0.38-0.463
					C336.509,141.113,336.307,140.944,336.068,140.965z"/>
			</g>
			<g>
				<path style="fill:#042C31;" d="M328.96,123.853c-0.973,0.506-1.097,2.091-0.982,4.483c0.011,0.227,0.198,0.403,0.423,0.403
					c0.007,0,0.014,0,0.021,0c0.234-0.011,0.414-0.21,0.403-0.443c-0.044-0.912-0.161-3.334,0.526-3.692
					c0.19-0.099,0.685-0.129,1.855,0.778c0.185,0.144,0.451,0.111,0.594-0.075c0.144-0.185,0.11-0.451-0.075-0.594
					C330.514,123.775,329.636,123.501,328.96,123.853z"/>
			</g>
			<g>
				<path style="fill:#042C31;" d="M344.442,119.627c-2.918-1.361-4.923-1.601-6.131-0.732c-1.022,0.735-1.395,2.184-1.141,4.431
					c0.025,0.216,0.208,0.376,0.421,0.376c0.016,0,0.032-0.001,0.048-0.003c0.232-0.026,0.4-0.236,0.374-0.468
					c-0.214-1.888,0.053-3.116,0.793-3.649c0.922-0.664,2.699-0.391,5.278,0.813c0.212,0.099,0.464,0.007,0.563-0.205
					C344.746,119.977,344.654,119.725,344.442,119.627z"/>
			</g>
			<g>
				<g>
					<g>
						<path style="fill:#042C31;" d="M339.467,130.119c0.392,2.177,2.269,1.842,1.876-0.338
							C340.951,127.604,339.074,127.938,339.467,130.119z"/>
					</g>
				</g>
			</g>
			<g>
				<g>
					<g>
						<path style="fill:#042C31;" d="M330.093,133.825c0.635,1.732,2.426,1.079,1.79-0.656
							C331.248,131.436,329.457,132.089,330.093,133.825z"/>
					</g>
				</g>
			</g>
			<g>
				<path style="fill:#042C31;" d="M335.345,146.765c-0.517,0.505,4.289,4.085,7.625,1.906c3.336-2.178,0.817-10.144,0.817-10.144
					L335.345,146.765z"/>
			</g>
		</g>
		<g>
			<path style="fill:#042C31;" d="M346.033,170.524c6.943-0.469,9.424-8.178,10.296-12.927c-9.01,0.967-17.438,2.8-24.541,5.599
				C333.56,165.698,338.286,171.048,346.033,170.524z"/>
		</g>
		<g>
			<path style="fill:#FFDB8A;" d="M383.567,95.956l-40.721,3.966c1.213,23.356,4.2,45.083,9.133,62.659l37.035-2.178l36.49-8.532
				l-6.172-57.367L383.567,95.956z"/>
		</g>
		<g>
			<path style="fill:#042C31;" d="M369.094,100.355l-11.176,1.069c-1.711,0.164-2.978,1.662-2.856,3.376
				c0.126,1.771,1.685,3.092,3.453,2.927l11.177-1.048c1.692-0.159,2.957-1.624,2.866-3.321l-0.001-0.021
				C372.46,101.539,370.886,100.184,369.094,100.355z"/>
		</g>
		<g>
			<polygon style="fill:#FFFFFF;" points="351.154,148.127 352.614,158.679 364.634,157.219 363.234,146.994 			"/>
		</g>
		<g>
			<polygon style="fill:#FFFFFF;" points="395.73,154.594 421.191,149.185 421.191,141.807 394.641,146.289 			"/>
		</g>
		<g style="opacity:0.5;">
			<polygon style="fill:#F9C1BB;" points="383.567,95.956 389.013,160.403 425.503,151.871 419.331,94.504 			"/>
		</g>
		<g>
			<g>
				<path style="fill:#FFBB90;" d="M372.039,139.957c-1.362-5.514-4.085-2.155-4.085-2.155c-0.885-3.244-2.995-3.359-3.676-3.005
					c-0.681,0.354-0.477,3.73-0.477,3.73s-1.362-1.838-2.383-1.225c-1.021,0.613-1.089,8.396-0.908,11.21
					c0.182,2.814,2.451,20.514,2.451,20.514c-3.268,6.354-20.514,25.325-20.514,25.325l-5.991-7.443
					c-5.809-1.089-14.977,9.557-15.34,19.334c0,0,14.19,25.144,30.037,21.513c16.646-3.814,23.79-48.653,25.968-58.547
					c2.178-9.894-0.25-14.886-1.203-23.532C374.966,137.03,372.039,139.957,372.039,139.957z"/>
			</g>
			<g>
				<path style="fill:#042C31;" d="M373.985,146.927c-7.087-0.886-11.225,0.834-11.397,0.908c-0.161,0.069-0.236,0.255-0.168,0.417
					c0.051,0.121,0.169,0.194,0.292,0.194c0.041,0,0.084-0.008,0.124-0.025c0.041-0.018,4.171-1.726,11.069-0.862
					c0.197,0.023,0.333-0.102,0.355-0.276C374.282,147.107,374.159,146.949,373.985,146.927z"/>
			</g>
			<g>
				<path style="fill:#042C31;" d="M363.773,138.211c-0.175,0.016-0.303,0.171-0.287,0.345l0.832,9.033
					c0.015,0.165,0.154,0.289,0.316,0.289c0.01,0,0.02,0,0.029-0.001c0.175-0.016,0.304-0.171,0.287-0.345l-0.832-9.033
					C364.102,138.324,363.938,138.194,363.773,138.211z"/>
			</g>
			<g>
				<path style="fill:#042C31;" d="M367.917,137.487c-0.174,0.021-0.299,0.179-0.278,0.353l1.089,9.192
					c0.019,0.162,0.156,0.281,0.315,0.281c0.013,0,0.025-0.001,0.038-0.002c0.174-0.021,0.299-0.179,0.278-0.353l-1.089-9.192
					C368.249,137.59,368.088,137.468,367.917,137.487z"/>
			</g>
			<g>
				<path style="fill:#042C31;" d="M372.009,139.641c-0.175,0.017-0.303,0.172-0.285,0.347l0.68,7.037
					c0.016,0.164,0.154,0.287,0.316,0.287c0.01,0,0.02-0.001,0.031-0.002c0.175-0.016,0.303-0.172,0.285-0.347l-0.68-7.037
					C372.339,139.752,372.192,139.614,372.009,139.641z"/>
			</g>
			<g>
				<path style="fill:#042C31;" d="M342.246,194.106c-0.168,0.138-4.13,3.404-6.122,5.759c-0.113,0.134-0.097,0.334,0.037,0.448
					c0.059,0.051,0.132,0.075,0.205,0.075c0.09,0,0.18-0.038,0.242-0.113c1.955-2.311,6-5.645,6.041-5.678
					c0.135-0.111,0.155-0.311,0.043-0.447C342.582,194.014,342.381,193.995,342.246,194.106z"/>
			</g>
		</g>
		<g>
			<path style="fill:#042C31;" d="M425.431,151.561l-36.49,8.533c-0.171,0.04-0.277,0.211-0.237,0.382
				c0.035,0.146,0.165,0.245,0.309,0.245c0.024,0,0.048-0.003,0.072-0.008l36.49-8.533c0.171-0.04,0.277-0.211,0.237-0.382
				C425.773,151.628,425.599,151.52,425.431,151.561z"/>
		</g>
		<g>
			<path style="fill:#FFBB90;" d="M409.333,94.91c-2.192-3.951-7.339-6.669-10.97-5.58c-3.631,1.089-9.531,2.36-11.346,2.451
				c-1.815,0.091-2.842,4.151-2.842,4.151l4.749-0.193c0.544-0.022,3.074,1.398,3.074,1.398c0.64,2.995,3.747,8.639,6.909,14.342
				l-4.266,47.61l-5.628,1.316l-3.924,0.231c-0.008,7.574,1.178,15.541,3.924,21.917c0,0,28.865-7.443,31.225-13.797
				c2.36-6.354-7.443-60.363-7.625-61.014C412.432,107.089,411.524,98.861,409.333,94.91z"/>
		</g>
		<g>
			<path style="fill:#042C31;" d="M392.304,97.051l-0.034-0.12l-0.106-0.065c-0.908-0.556-1.964-1.036-3.141-1.428l-0.055-0.018
				l-4.808,0.195c-0.174,0.007-0.311,0.155-0.304,0.33c0.007,0.175,0.128,0.336,0.331,0.305l4.69-0.19
				c1.063,0.358,2.02,0.79,2.848,1.284c1.117,3.907,4.082,9.36,6.855,14.206l-4.575,51.004c-0.016,0.175,0.112,0.329,0.288,0.345
				c0.009,0.001,0.019,0.001,0.028,0.001c0.163,0,0.302-0.124,0.316-0.289l4.584-51.104l0.009-0.1l-0.05-0.087
				C396.386,106.436,393.382,100.921,392.304,97.051z"/>
		</g>
		<g>
			<path style="fill:#042C31;" d="M412.931,107.715c-0.543-6.709-2.869-12.051-2.893-12.104c-0.07-0.161-0.257-0.232-0.419-0.163
				c-0.16,0.071-0.233,0.258-0.162,0.419c0.022,0.052,2.307,5.302,2.84,11.899c0.151,1.866,0.892,5.805,1.829,10.791
				c2.462,13.094,6.583,35.01,5.796,50.181c-0.009,0.175,0.125,0.325,0.3,0.334c0.006,0,0.012,0,0.017,0
				c0.168,0,0.309-0.132,0.317-0.301c0.792-15.247-3.337-37.209-5.805-50.331C413.817,113.471,413.079,109.548,412.931,107.715z"/>
		</g>
		<g>
			<path style="fill:#042C31;" d="M360.679,311.536c4.221-11.166,8.082-19.392,11.36-24.599c9.259-14.705,6.445-32.314,6.445-32.314
				h-53.01c-0.634,30.494-2.905,60.816,3.54,69.077c-8.483,16.724-21.281,63.433-23.992,73.502
				c-0.271,1.008,0.434,2.013,1.474,2.105l27.315,2.417c0.839,0.074,1.603-0.491,1.786-1.313
				c4.83-21.699,9.689-40.504,14.359-56.398l31.747,51.502c0.42,0.681,1.327,0.869,1.983,0.409l18.962-13.289
				c0.602-0.422,0.772-1.238,0.388-1.865L360.679,311.536z"/>
		</g>
		<g>
			<path style="fill:#A8C2BB;" d="M349.764,271.963l-5.161-2.824c-0.205-0.113-0.463-0.037-0.575,0.168
				c-0.112,0.206-0.037,0.463,0.168,0.575l4.832,2.644l-20.407,51.018c-0.087,0.217,0.019,0.464,0.236,0.551
				c0.051,0.021,0.105,0.03,0.157,0.03c0.168,0,0.327-0.1,0.393-0.266l20.547-51.366
				C350.033,272.293,349.951,272.065,349.764,271.963z"/>
			<path style="fill:#A8C2BB;" d="M368.279,293.701c-0.215-0.097-0.465,0.001-0.559,0.214c-0.116,0.259-11.637,26.22-18.171,49.985
				c-6.529,23.742-14.603,57.517-14.683,57.855c-0.054,0.227,0.086,0.456,0.314,0.51c0.033,0.008,0.066,0.012,0.099,0.012
				c0.191,0,0.365-0.131,0.411-0.325c0.081-0.338,8.151-34.1,14.676-57.827c6.518-23.703,18.013-49.607,18.128-49.866
				C368.589,294.046,368.492,293.796,368.279,293.701z"/>
		</g>
		<g>
			<path style="fill:#042C31;" d="M326.452,406.673c-5.385,1.745-10.771,1.745-16.157,0c-10.128,3.668-19.928,9.276-29.552,15.917
				c-1.428,0.985-0.719,3.228,1.015,3.228h41.161c2.299,0,4.182-1.82,4.255-4.118c0.151-4.765,0.364-12.061,0.273-12.833
				C327.312,407.709,326.452,406.673,326.452,406.673z"/>
		</g>
		<g>
			<path style="fill:#042C31;" d="M409.074,394.57c-3.766,3.658-9.168,5.809-16.206,6.455c-3.965,5.504-11.799,10.562-19.932,15.423
				c-1.584,0.947-0.907,3.38,0.938,3.38H386.5c11.027,0,21.705-4.298,29.359-12.236c0.171-0.177,0.341-0.356,0.51-0.536
				c0.961-1.024,1.066-2.594,0.26-3.743C414.239,399.903,411.733,396.944,409.074,394.57z"/>
		</g>
	</g>
	<g>
		<g>
			<path style="fill:#FFBB90;" d="M168.168,225.395l3.449,25.234l17.7,0.908c0.47-2.386-13.292-29.742-13.292-29.742
				L168.168,225.395z"/>
		</g>
		<g>
			<polygon style="fill:#F9C1BB;" points="141.935,409.479 169.166,409.479 169.711,401.491 146.02,401.491 			"/>
		</g>
		<g>
			<polygon style="fill:#FF847B;" points="157.933,409.479 169.166,409.479 169.711,401.491 157.933,401.491 			"/>
		</g>
		<g>
			<path style="fill:#042C31;" d="M143.738,405.953c-2.199,3.764-5.286,9.048-8.674,14.847c-1.299,2.223,0.304,5.018,2.879,5.018
				h18.1c1.954,0,3.49-1.673,3.323-3.62l-1.433-16.713C153.1,408.117,146.836,407.777,143.738,405.953z"/>
		</g>
		<g>
			<path style="fill:#042C31;" d="M169.438,405.485c-3.2,2.701-9.295,1.97-11.505,0l-0.019,16.155
				c-0.002,1.605,1.299,2.907,2.903,2.907h30.044c1.35,0,1.974-1.674,0.96-2.564C184.92,415.924,177.459,410.425,169.438,405.485z"
				/>
		</g>
		<g>
			<path style="fill:#042C31;" d="M135.762,273.595c0,0-4.992,12.799-4.992,20.696s12.799,108.653,12.799,108.653H170.8
				c0,0,8.714-96.399,8.714-106.747s-4.629-22.602-4.629-22.602H135.762z"/>
		</g>
		<g>
			<g>
				<g>
					<path style="fill:#FFBB90;" d="M135.672,176.917c-2.859-4.652-8.135-0.703-4.506,5.253c0.887,2.339,2.76,4.761,5.051,5.549
						c12.617,12.254,21.346,9.544,22.148,8.623c8.623-9.894-1.271-29.092-1.271-29.092
						C137.305,152.635,135.672,176.917,135.672,176.917z"/>
				</g>
				<g>
					<path style="fill:#042C31;" d="M153.19,159.307c-6.523-3.906-12.538-3.75-17.135-1.669c0.064-0.078,0.132-0.17,0.205-0.282
						c0.3-0.468,0.63-1.272,0.715-2.379c0.076-1.103-0.059-1.91-0.163-2.436c-0.112-0.527-0.222-0.782-0.3-0.774
						c-0.08,0.008-0.128,0.282-0.135,0.814c-0.015,0.532,0.036,1.323-0.036,2.347c-0.099,1.169-0.359,1.939-0.537,2.414
						c0.037-0.211,0.067-0.431,0.081-0.666c0.065-1.003-0.157-2.242-0.888-3.396c-0.73-1.153-1.77-1.891-2.744-2.217
						c-0.974-0.334-1.845-0.315-2.498-0.195c-1.324,0.286-1.77,0.867-1.695,0.971c0.084,0.162,0.661-0.087,1.779-0.101
						c1.077,0.001,2.889,0.355,4.085,2.223c0.757,1.224,0.868,2.416,0.767,3.394c-0.303-6.767-10.748-5.915-14.542,3.951
						c-3.466,9.012,4.568,8.024,7.082,7.518c0,0.005-0.001,0.011-0.002,0.016c-0.635,7.897,3.935,13.331,3.935,13.331
						c-2.029-5.661,2.01-6.524,4.506-5.253c-3.117,2.86-2.269,14.705,2.723,20.334c-0.635-10.258,6.263-17.066,3.54-30.591
						c1.157-3.086,8.918-0.522,8.918-0.522c2.723-1.157,6.24,1.112,6.24,1.112c2.358,4.92,3.985,9.954,4.616,15.145
						C168.364,171.798,157.691,156.545,153.19,159.307z"/>
				</g>
				<g>
					<path style="fill:#042C31;" d="M146.349,169.207c-1.373,0.217-2.454,3.39-2.752,4.357c-0.069,0.224,0.056,0.461,0.28,0.53
						c0.042,0.013,0.084,0.019,0.125,0.019c0.181,0,0.349-0.117,0.405-0.299c0.539-1.748,1.502-3.68,2.075-3.771
						c1.015-0.157,2.123,0.672,2.134,0.681c0.185,0.142,0.451,0.108,0.594-0.078c0.142-0.185,0.108-0.451-0.077-0.593
						C149.076,170.009,147.736,168.988,146.349,169.207z"/>
				</g>
				<g>
					<path style="fill:#042C31;" d="M156.346,168.352c-1.276-0.303-2.636,1.375-2.787,1.568c-0.144,0.185-0.111,0.451,0.073,0.595
						c0.185,0.144,0.451,0.11,0.595-0.073c0.371-0.475,1.339-1.408,1.921-1.266c0.635,0.153,1.618,1.484,2.089,2.287
						c0.079,0.135,0.221,0.21,0.366,0.21c0.073,0,0.146-0.019,0.214-0.058c0.202-0.118,0.27-0.377,0.152-0.579
						C158.825,170.791,157.536,168.638,156.346,168.352z"/>
				</g>
				<g>
					<path style="fill:#042C31;" d="M154.189,180.87l-0.91-7.667c-0.021-0.175-0.184-0.296-0.353-0.278
						c-0.175,0.021-0.299,0.179-0.278,0.353l0.998,8.41l0.363-0.11c0.773-0.235,2.18-0.484,2.663-0.149
						c0.096,0.066,0.142,0.151,0.15,0.274c0.082,1.234-1.248,3.183-1.261,3.203c-0.099,0.144-0.063,0.342,0.082,0.441
						c0.055,0.038,0.117,0.056,0.18,0.056c0.101,0,0.201-0.048,0.262-0.137c0.06-0.087,1.469-2.15,1.372-3.605
						c-0.021-0.317-0.167-0.579-0.423-0.755C156.328,180.418,154.88,180.697,154.189,180.87z"/>
				</g>
				<g>
					<path style="fill:#042C31;" d="M147.653,186.402c0,5.129,5.764,8.623,9.49,3.132
						C153.033,189.994,149.79,189.077,147.653,186.402z"/>
				</g>
				<g>
					<g>
						<g>
							<path style="fill:#042C31;" d="M147.862,178.031c0.212,2.146,2.109,1.963,1.897-0.187
								C149.548,175.698,147.65,175.881,147.862,178.031z"/>
						</g>
					</g>
				</g>
				<g>
					<g>
						<g>
							<path style="fill:#042C31;" d="M155.825,176.675c0.121,1.769,2.023,1.642,1.902-0.13
								C157.606,174.777,155.704,174.904,155.825,176.675z"/>
						</g>
					</g>
				</g>
			</g>
			<g>
				<path style="fill:#A8C2BB;" d="M135.958,157.336c-10.195,3.271-9.055,11.468-9.043,11.55c0.024,0.157,0.159,0.269,0.314,0.269
					c0.016,0,0.032-0.001,0.048-0.004c0.173-0.026,0.293-0.189,0.266-0.362c-0.048-0.315-1.056-7.748,8.609-10.849
					c0.167-0.053,0.259-0.232,0.205-0.4C136.305,157.374,136.125,157.283,135.958,157.336z"/>
			</g>
			<g>
				<path style="fill:#A8C2BB;" d="M131.091,157.661c-2.602,1.304-4.92,5.316-4.221,9.209c0.028,0.153,0.161,0.261,0.312,0.261
					c0.019,0,0.038-0.002,0.057-0.005c0.173-0.031,0.287-0.196,0.257-0.369c-0.639-3.56,1.532-7.352,3.88-8.529
					c0.758-0.379,1.842-0.639,2.702,0.28c0.12,0.129,0.321,0.135,0.449,0.015c0.128-0.12,0.135-0.32,0.015-0.449
					C133.675,157.148,132.417,156.997,131.091,157.661z"/>
			</g>
		</g>
		<g>
			<path style="fill:#FF8883;" d="M163.175,203.701c-2.905-2.451-9.622-2.995-17.791-1.725s-21.059,21.785-21.059,21.785
				c1.264,3.859,3.788,6.777,7.262,8.986l7.806-8.079c-0.545,18.517,0.545,32.496-3.631,48.926c27.231,9.894,39.122,0,39.122,0
				c-1.895-19.002-3.721-37.314-4.765-47.791c6.127-2.042,6.581-5.582,6.581-5.582S166.08,206.152,163.175,203.701z"/>
		</g>
		<g>
			<path style="fill:#042C31;" d="M146.622,201.799c1.661,2.283,5.857,7.63,8.293,6.985c2.154-0.57,2.892-4.672,3.142-7.101
				C154.988,201.158,151.047,201.2,146.622,201.799z"/>
		</g>
		<g>
			<path style="fill:#042C31;" d="M159.372,201.106c-0.141-0.006-0.216,0.086-0.221,0.203c-0.003,0.085-0.4,8.477-4.127,8.991
				c-3.786,0.524-10.177-8.187-10.241-8.275c-0.069-0.094-0.201-0.115-0.296-0.046c-0.094,0.069-0.115,0.201-0.046,0.296
				c0.26,0.356,6.226,8.47,10.258,8.47c0.13,0,0.258-0.008,0.383-0.026c4.075-0.562,4.477-9.032,4.492-9.392
				C159.579,201.21,159.489,201.111,159.372,201.106z"/>
		</g>
		<path style="fill:#A8C2BB;" d="M168.706,286.707l-15.431,3.631c-0.227,0.054-0.368,0.282-0.315,0.51
			c0.046,0.195,0.22,0.326,0.412,0.326c0.032,0,0.065-0.004,0.098-0.011l5.775-1.359l-1.757,113.132
			c-0.004,0.234,0.183,0.427,0.417,0.43c0.003,0,0.005,0,0.007,0c0.231,0,0.42-0.185,0.424-0.417l1.76-113.346l8.806-2.072
			c0.228-0.054,0.369-0.282,0.315-0.51C169.162,286.795,168.932,286.655,168.706,286.707z"/>
		<g>
			<path style="fill:#F9C1BB;" d="M164.446,212.687c-0.726,0,1.815,7.806-6.808,8.714c-8.623,0.908-13.525-4.357-14.07-2.451
				s-4.175,5.719-4.175,5.719c-0.545,18.517,0.545,32.496-3.631,48.925c27.231,9.894,39.122,0,39.122,0
				c-1.895-19.002-3.721-37.314-4.765-47.791C170.119,225.804,165.172,212.687,164.446,212.687z"/>
		</g>
		<g>
			<path style="fill:#FFBB90;" d="M124.325,223.762c0,0-34.47,40.098-37.398,41.596c-2.927,1.498-19.879,9.19-19.607,10.348
				c0.272,1.157,10.625-1.235,10.625-1.235s-0.073,4.23,0.676,5.251s3.268,1.362,3.268,1.362c2.247,3.2,10.893-1.974,12.322-3.744
				c1.43-1.77,0.703-8.918,0.703-8.918l36.671-35.673C129.046,229.604,126.645,226.632,124.325,223.762z"/>
		</g>
		<g>
			<path style="fill:#042C31;" d="M76.744,274.476c-0.115,0.022-0.19,0.133-0.168,0.248c0.022,0.115,0.131,0.187,0.248,0.168
				c4.646-0.892,9.696-1.553,10.096-1.147c0.046,0.682-3.161,4.78-5.193,7.202c-0.075,0.09-0.064,0.223,0.026,0.298
				c0.04,0.033,0.088,0.05,0.136,0.05c0.06,0,0.12-0.026,0.162-0.076c0.896-1.068,5.361-6.45,5.291-7.503
				c-0.005-0.076-0.036-0.185-0.156-0.277C86.231,272.701,78.32,274.173,76.744,274.476z"/>
		</g>
		<g>
			<path style="fill:#042C31;" d="M80.223,275.668c-0.108,0.043-0.161,0.167-0.118,0.276c0.043,0.109,0.167,0.16,0.275,0.117
				c1.065-0.427,3.988-1.369,4.721-0.617c0.239,0.246,0.218,0.698-0.064,1.346c-0.046,0.107,0.003,0.232,0.11,0.279
				c0.028,0.012,0.056,0.017,0.084,0.017c0.082,0,0.16-0.048,0.194-0.128c0.356-0.82,0.349-1.429-0.022-1.81
				C84.345,274.058,80.641,275.499,80.223,275.668z"/>
		</g>
		<g>
			<path style="fill:#F9C1BB;" d="M77.946,274.47c0,0-0.073,4.23,0.676,5.251c0.749,1.021,3.268,1.362,3.268,1.362
				s5.378-6.513,5.242-7.353C86.996,272.891,78.268,274.257,77.946,274.47z"/>
		</g>
		<g>
			<path style="fill:#A8C2BB;" d="M157.896,405.063c-0.233,0.021-0.405,0.226-0.385,0.459c0.394,4.501,1.419,16.273,1.431,16.683
				c0.004,0.231,0.193,0.416,0.424,0.416c0.002,0,0.005,0,0.007,0c0.234-0.004,0.42-0.197,0.417-0.431
				c-0.007-0.425-1.288-15.073-1.434-16.743C158.335,405.215,158.129,405.053,157.896,405.063z"/>
		</g>
		<g>
			<g>
				<path style="fill:#FFDB8A;" d="M172.99,223.181l-5.026-0.08l-0.08-1.556l-20.582-0.399c-3.663,13.607-5.803,27.617-6.826,41.922
					h1.999v0.798h1.954l-0.199,0.997l24.212-0.359c2.684-10.82,5.923-23.44,9.573-35.38c-2.273-1.675-5.385-1.835-5.385-1.835
					L172.99,223.181z"/>
			</g>
			<g>
				<path style="fill:#042C31;" d="M172.669,226.973c-0.113-0.013-11.426-1.353-21.115-0.879l-0.249,0.012l-7.187,37.701
					c-0.033,0.173,0.08,0.339,0.252,0.371c0.02,0.004,0.04,0.006,0.06,0.006c0.149,0,0.283-0.106,0.311-0.258l7.093-37.209
					c9.578-0.435,20.646,0.874,20.758,0.887c0.174,0.016,0.333-0.103,0.354-0.278C172.968,227.152,172.843,226.994,172.669,226.973z
					"/>
			</g>
			<g>
				<path style="fill:#042C31;" d="M172.992,222.863l-22.958-0.079l-7.87,40.224c-0.033,0.172,0.079,0.339,0.251,0.373
					c0.02,0.004,0.041,0.006,0.061,0.006c0.149,0,0.282-0.105,0.312-0.257l7.769-39.708l22.432,0.077c0,0,0.001,0,0.001,0
					c0.175,0,0.317-0.142,0.318-0.316C173.309,223.006,173.167,222.863,172.992,222.863z"/>
			</g>
		</g>
		<g>
			<path style="fill:#FFBB90;" d="M175.838,246.295c-11.58-1.046-18.926-0.408-21.853-0.956c-0.99-0.185-2.055-0.521-3.098-0.895
				c-0.083-0.075-4.466-4.026-5.23-3.981c-0.771,0.045-3.174,1.627-3.174,1.627l0.007,0.002c-2.027-0.132-4.178-0.001-4.503,0.935
				c-0.545,1.566,1.43,4.017,0.681,5.855c-0.749,1.838,0.134,3.892,0.749,4.834c0.614,0.942,1.021,3.404,2.246,3.812
				c1.225,0.409,10.62-0.817,10.62-0.817s16.248,0.817,21.054,1.362c12.792,1.451,15.708-1.997,15.98-6.536
				C189.589,246.999,182.646,246.911,175.838,246.295z"/>
		</g>
		<g>
			<path style="fill:#042C31;" d="M184.845,247.024c-9.892-1.87-30.65-2-30.859-2.002c0,0-0.001,0-0.002,0
				c-0.175,0-0.317,0.141-0.318,0.316c-0.001,0.175,0.141,0.318,0.316,0.319c0.208,0.001,20.909,0.131,30.744,1.991
				c0.02,0.004,0.04,0.005,0.06,0.005c0.15,0,0.283-0.106,0.312-0.258C185.131,247.223,185.017,247.057,184.845,247.024z"/>
		</g>
	</g>
</g>
</svg>
